<?xml version="1.0" encoding="utf-8"?>
<!-- Generator: Adobe Illustrator 27.4.0, SVG Export Plug-In . SVG Version: 6.00 Build 0)  -->
<svg version="1.1" id="Layer_1" xmlns="http://www.w3.org/2000/svg" xmlns:xlink="http://www.w3.org/1999/xlink" x="0px" y="0px"
	 viewBox="0 0 884.4 884.4" style="enable-background:new 0 0 884.4 884.4;" xml:space="preserve">
<style type="text/css">
	.st0{stroke:#000000;stroke-miterlimit:10;}
	.st1{stroke:#000000;stroke-width:0.8903;stroke-miterlimit:10;enable-background:new    ;}
	.st2{enable-background:new    ;}
	.st3{stroke:#000000;stroke-width:0.8903;stroke-miterlimit:10;}
</style>
<path class="st0" d="M755.5,404.9H652.4c-2.8,0-5-2.2-5-5V393c0-2.8,2.2-5,5-5h103.2c2.8,0,5,2.2,5,5v6.8
	C760.5,402.6,758.3,404.9,755.5,404.9z"/>
<path class="st1" d="M191.4,423.4H76.5c-2.8,0-5-2.2-5-5v-6.8c0-2.8,2.2-5,5-5h114.8c2.8,0,5,2.2,5,5v6.8
	C196.4,421.2,194.1,423.4,191.4,423.4z"/>
<path class="st2" d="M421,472.8V329.2c0-2.8,2.2-5,5-5h6.8c2.8,0,5,2.2,5,5v143.6c0,2.8-2.2,5-5,5H426
	C423.2,477.8,421,475.6,421,472.8z"/>
<path class="st0" d="M594.1,472.8V329.2c0-2.8,2.2-5,5-5h6.8c2.8,0,5,2.2,5,5v143.6c0,2.8-2.2,5-5,5h-6.8
	C596.4,477.8,594.1,475.6,594.1,472.8z"/>
<path class="st0" d="M374.8,472.8V329.2c0-2.8,2.2-5,5-5h6.8c2.8,0,5,2.2,5,5v143.6c0,2.8-2.2,5-5,5h-6.8
	C377,477.8,374.8,475.6,374.8,472.8z"/>
<path class="st0" d="M238.4,324.1h-112h-4.3h-12.7c-6.7,0-15.7,11.5-15.7,14c0,1.2,0.9,2,0.9,2c0.2,0.2,0.5,0.4,0.8,0.5
	c0.6,0.3,1.3,0.4,1.9,0.4c1.1,0,2.6,0,2.6,0h22.1h4.3h112c2.6,0,4.8-2.2,4.8-5v-6.8C243.2,326.4,241,324.1,238.4,324.1z"/>
<path class="st0" d="M238.4,464.6h-112h-4.3h-12.7c-6.7,0-15.7-11.5-15.7-14c0-1.2,0.9-2,0.9-2c0.2-0.2,0.5-0.4,0.8-0.5
	c0.6-0.3,1.3-0.4,1.9-0.4c1.1,0,2.6,0,2.6,0h22.1h4.3h112c2.6,0,4.8,2.2,4.8,5v6.8C243.2,462.4,241,464.6,238.4,464.6z"/>
<path class="st2" d="M173.9,505.8h-17.8c-2.8,0-5-2.2-5-5v-6.9c0-2.8,2.2-5,5-5h17.8c2.8,0,5,2.2,5,5v6.9
	C178.9,503.6,176.6,505.8,173.9,505.8z"/>
<path class="st3" d="M90.1,365.8c-2.8,0-5,2.2-5,5v6.8c0,2.8,2.2,5,5,5h21.7c2.6,0,4.7-2.1,4.7-4.7v-7.5c0-2.6-2.1-4.7-4.7-4.7H90.1
	z"/>
<path class="st0" d="M516,460.9h-24.7c-3.3,0-5.9-2.7-5.9-5.9V329.2c0-2.8-2.2-5-5-5h-6.8c-2.8,0-5,2.2-5,5v137.7
	c0,6.1,4.9,11,11,11l0,0h0.9H516c2.8,0,5-2.2,5-5v-6.9C521,463.1,518.8,460.9,516,460.9z"/>
<path class="st0" d="M757.7,418.1h24.7c3.3,0,5.9-2.6,5.9-5.9v-83.1c0-2.8,2.2-5,5-5h6.8c2.8,0,5,2.2,5,5v94.9
	c0,6-4.9,10.9-10.9,10.9h0h-0.9h-35.6c-2.8,0-5-2.2-5-5v-6.9C752.8,420.4,755,418.1,757.7,418.1z"/>
<path class="st0" d="M668.5,432v24.7c0,3.3,2.7,5.9,5.9,5.9h125.8c2.8,0,5,2.2,5,5v6.8c0,2.8-2.2,5-5,5H662.5
	c-6,0-10.9-4.9-10.9-10.9v0v-0.9V432c0-2.8,2.2-5,5-5h6.9C666.2,427,668.5,429.2,668.5,432z"/>
<path class="st2" d="M561.1,477.8h-14.9c-2.8,0-5-2.2-5-5v-6.9c0-2.8,2.2-5,5-5h14.9c2.8,0,5,2.2,5,5v6.9
	C566.1,475.6,563.8,477.8,561.1,477.8z"/>
<path class="st2" d="M711.4,435h-14.9c-2.8,0-5-2.2-5-5v-6.9c0-2.8,2.2-5,5-5h14.9c2.8,0,5,2.2,5,5v6.9
	C716.4,432.8,714.1,435,711.4,435z"/>
<path class="st2" d="M315.7,320.4h-14.5c-16.1,0-29.2,13.1-29.2,29.2v99.1c0,16.1,13.1,29.2,29.2,29.2h14.5
	c16.1,0,29.2-13.1,29.2-29.2v-99.1C344.9,333.5,331.8,320.4,315.7,320.4z M328.4,444.1c0,10.3-8.4,18.6-18.6,18.6H307
	c-10.3,0-18.6-8.4-18.6-18.6v-90c0-10.3,8.4-18.6,18.6-18.6h2.8c10.3,0,18.6,8.4,18.6,18.6V444.1z"/>
<path class="st2" d="M308.4,351.2c-3.4,0-6.2,2.8-6.2,6.2v84.1c0,3.4,2.8,6.2,6.2,6.2s6.2-2.8,6.2-6.2v-84.1
	C314.6,354,311.8,351.2,308.4,351.2z"/>
<path class="st2" d="M738.7,324.1h-67.8c-13,0-23.6,10.5-23.6,23.6c0,13,10.5,23.6,23.6,23.6h67.8c13,0,23.6-10.5,23.6-23.6
	S751.7,324.1,738.7,324.1z M736.2,354.6h-62.8c-3.8,0-6.9-3.1-6.9-6.9s3.1-6.9,6.9-6.9h62.8c3.8,0,6.9,3.1,6.9,6.9
	C743.1,351.5,740,354.6,736.2,354.6z"/>
<path d="M199.6,383.1h-52.4c-3,0-5.5-2.5-5.5-5.5v-6.8c0-3,2.4-5.5,5.5-5.5h52.4c3,0,5.5,2.5,5.5,5.5v6.8
	C205.1,380.6,202.6,383.1,199.6,383.1z"/>
</svg>
