<?xml version="1.0" encoding="utf-8"?>
<!-- Generator: Adobe Illustrator 27.4.0, SVG Export Plug-In . SVG Version: 6.00 Build 0)  -->
<svg version="1.1" id="Layer_1" xmlns="http://www.w3.org/2000/svg" xmlns:xlink="http://www.w3.org/1999/xlink" x="0px" y="0px"
	 viewBox="0 0 884.41 884.41" style="enable-background:new 0 0 884.41 884.41;" xml:space="preserve">
<style type="text/css">
	.st0{stroke:#000000;stroke-width:9.4792;stroke-linecap:square;stroke-miterlimit:10;}
	.st1{fill:none;stroke:#000000;stroke-width:9.4792;stroke-linecap:square;stroke-miterlimit:10;}
</style>
<path class="st0" d="M86.25,420.24l0.54,80.9c0,0,27.08,2.79,35.95-0.26L86.25,420.24z"/>
<path class="st0" d="M141.04,230.36c95.93,44.9,77.66,148.51,77.66,148.51c-19.65,95.79-80.69,113.2-80.69,113.2
	c2.11,4.46,3.22,6.65,3.22,6.65C255.09,475.49,249.46,375.7,249.46,375.7c-5.81-122.57-107.4-145.34-107.4-145.34"/>
<path class="st0" d="M164.94,172.53c0,0,42.42-0.81,44.08,28.92c1.64,29.34-68.82,28.91-68.82,28.91s105.07,6.25,102.75-28.91
	C240.87,169.73,164.94,172.53,164.94,172.53z"/>
<path class="st0" d="M557.66,172.16c0,0,42.42-0.84,44.08,30.31c1.64,30.75-48.43,32.21-48.43,32.21s84.68,4.64,82.36-32.21
	C633.59,169.22,557.66,172.16,557.66,172.16z"/>
<path class="st0" d="M560.35,235c0,0,48.83-1.72,50.75,61.65c1.89,62.56-55.74,63.52-55.74,63.52s94.8,3.9,94.8-63.52
	C650.16,228.98,560.35,235,560.35,235z"/>
<line class="st1" x1="164.94" y1="172.53" x2="50.86" y2="172.1"/>
<circle cx="120.54" cy="230.78" r="20.5"/>
<circle cx="373.93" cy="255.36" r="20.5"/>
<circle cx="504.41" cy="234.86" r="16.46"/>
<circle cx="537.33" cy="234.86" r="16.46"/>
<g>
	<path class="st0" d="M53.01,360.16c0,0,0.16,0.01,0.44,0H53.01z"/>
	<path class="st0" d="M91.71,310.36l-0.07-34.28c0-6.08,0-20.68,0-54.17c0-47.51,26.58-49.47,30.32-49.54l-69.29-0.26
		c32.7,2.18,31.03,49.81,31.03,49.81l0.07,34.28c0,6.08,0,20.68,0,54.17c0,47.51-26.58,49.73-30.32,49.81h69.29
		C90.04,357.98,91.71,310.36,91.71,310.36z"/>
	<path class="st0" d="M121.96,172.1"/>
</g>
<path class="st0" d="M733.07,451.61c0.01-0.01,0-0.02-0.01-0.02l-69.25-0.26c63.24,1.86-63.15,217.18-95.7,217.56h69.29
	C594.16,673.84,707.83,466.36,733.07,451.61z"/>
<g>
	<path class="st0" d="M650.82,165.87l68.78-0.27c-39.5,1.19-3.91,83.95,31.41,161.28c0,0,57.92-117.87,19.65-119.03l68.78,0.27
		c-24.38,14.48-132.64,216.42-97.76,221.26h-66c12.46-0.15,43.47-14.16,63.58-74.6C737.88,344.86,667.55,175.81,650.82,165.87z"/>
	<path class="st0" d="M741.67,429.38h2.78C743.44,429.5,742.51,429.5,741.67,429.38z"/>
</g>
<g>
	<path class="st0" d="M446.65,360.16c0,0,0.16,0.01,0.44,0H446.65z"/>
	<path class="st0" d="M485.32,310.36l-0.07-34.27c0-6.08,0-20.68,0-54.17c0-47.5,26.56-49.73,30.3-49.81h-69.24
		c32.67,2.18,31.01,49.81,31.01,49.81l0.07,34.27c0,6.08,0,20.68,0,54.17c0,47.5-26.56,49.73-30.3,49.81h69.24
		C483.65,357.98,485.32,310.36,485.32,310.36z"/>
	<path class="st0" d="M515.55,172.11h0.44C515.99,172.11,515.83,172.1,515.55,172.11z"/>
</g>
<line class="st1" x1="561.04" y1="172.1" x2="446.31" y2="172.1"/>
<path class="st0" d="M361.68,360.16"/>
<path class="st0" d="M134.8,360.16"/>
<g>
	<path class="st0" d="M366.99,360.16h-0.44C366.55,360.16,366.7,360.16,366.99,360.16z"/>
	<path class="st0" d="M122.71,360.16H99.34c-6.98,0.29-16.63,2.42-15.71,14.22c1.42,18.43,39.1,113.72,39.1,113.72l57.19,136.53
		c0.01,0.02,181.79-433.22,181.79-433.22s10.84-15.8-6.72-19.32h68.24c0,0-18.25,1.4-18.42,25.03c-0.16,23.63,0.38,54.7,0.38,54.7
		v2.23c0,13.47,0,20.76,0,24.58l0.07,33.24c0,0-1.67,46.18,31.01,48.3h-69.24c3.73-0.07,30.3-2.23,30.3-48.3
		c0-32.48,0-46.63,0-52.53l-0.02-7.52c0.27-25.69-0.62-40.43-2.29-47.47c-1.43-6.05-7.8-9.73-13.66-7.69
		c-10.37,3.62-15.93,17.94-15.93,17.94L179.95,655.57c-0.01,0.02-68.91-171.12-68.91-171.12c0.18,0.35-40.63-100.77-49.68-113.63
		c-7.04-10-7.89-10.65-7.89-10.65L122.71,360.16z"/>
</g>
<path class="st0" d="M418.79,388.74c-74.3,0-134.53,65.1-134.53,145.4s60.22,145.41,134.53,145.41s134.53-65.1,134.53-145.4
	S493.08,388.74,418.79,388.74z M418.79,674.55c-59.42,0-107.6-62.86-107.6-140.41s48.18-140.41,107.6-140.41
	s107.6,62.86,107.6,140.41S478.21,674.55,418.79,674.55z"/>
<path class="st0" d="M484.73,368.06c32.1,12.44,88.43,43.72,146.79,120.81c0,0,16.59,21.56,51.37,73.66
	c14.82,22.21,31.65,43.05,50.45,62c9.81,9.88,20.36,19.51,29.95,26.15c21.45,14.87,31.87,18.19,31.87,18.19h56
	c0,0-80.05-9.61-182.93-166.57c-54.67-83.42-135.22-119.54-179.25-133.83c-19.32-6.27-31.6-8.32-31.6-8.32"/>
</svg>
