<?xml version="1.0" encoding="utf-8"?>
<!-- Generator: Adobe Illustrator 27.4.0, SVG Export Plug-In . SVG Version: 6.00 Build 0)  -->
<svg version="1.1" id="Layer_1" xmlns="http://www.w3.org/2000/svg" xmlns:xlink="http://www.w3.org/1999/xlink" x="0px" y="0px"
	 viewBox="0 0 884.41 884.41" style="enable-background:new 0 0 884.41 884.41;" xml:space="preserve">
<style type="text/css">
	.st0{fill:none;stroke:#000000;stroke-width:3.415;stroke-linecap:round;stroke-miterlimit:10;}
	
		.st1{opacity:0.4;fill:none;stroke:#000000;stroke-width:3.415;stroke-linecap:round;stroke-miterlimit:10;enable-background:new    ;}
	.st2{fill:none;stroke:#000000;stroke-width:3.7193;stroke-linecap:round;stroke-miterlimit:10;}
	.st3{fill:none;stroke:#000000;stroke-width:3.2766;stroke-linecap:round;stroke-miterlimit:10;}
</style>
<line class="st0" x1="175.64" y1="159.66" x2="175.64" y2="321.51"/>
<path class="st0" d="M393.01,250.05c8.54,4.88,16.39,11.06,22.48,18.91c22.23,28.6,24.77,58.77,24.77,58.77"/>
<path class="st0" d="M313.26,325.96V176.07c0-1.25,0.96-2.3,2.2-2.41c12.9-1.15,78.17-5.38,79.87,26.2c0,0,5.5,32.02-71.35,32.02
	c0,0,31.35,0.75,60.05,14.15"/>
<circle class="st0" cx="440.26" cy="274.52" r="53.22"/>
<path class="st0" d="M133.03,289.66c11.6,15.79,34.78,35.37,72.57,38.08c58.91,4.22,90.21-18.82,86.82-57.1
	c-1.84-20.87-14.68-29.22-25.89-34.33c-23.4-10.67-55.3-8.88-55.86-8.86c-11.41,0.4,81.3,5.81,80.23-43.45
	c-1.05-48.31-56.95-53.92-56.95-53.92s-93.58-17.14-118.02,90.79"/>
<path class="st0" d="M615.21,222.87c0,0-24.41,93.42-31.21,102.69c-5.91,8.04-17.5-67.11-25.09-96.57c0,0-1.14-3.39-2.82-3.38
	c-1.68-0.01-2.82,3.38-2.82,3.38c-7.58,29.46-19.18,104.61-25.09,96.57c-6.81-9.27-31.21-102.69-31.21-102.69"/>
<path class="st0" d="M711.23,147.89v179.88c0,0.47-0.63,0.59-0.82,0.17l-79.95-178.22c-0.19-0.42-0.82-0.28-0.82,0.17v177.84"/>
<path class="st0" d="M295.22,418.84v67.39c0,0.93,0.75,1.68,1.68,1.68h55.82"/>
<path class="st0" d="M352.73,349.76h-55.82c-0.93,0-1.68,0.75-1.68,1.68v67.39"/>
<line class="st0" x1="352.73" y1="418.84" x2="295.22" y2="418.84"/>
<path class="st0" d="M470.7,418.84v-67.39c0-0.93,0.75-1.68,1.68-1.68h55.82"/>
<path class="st0" d="M528.21,487.91h-55.82c-0.93,0-1.68-0.75-1.68-1.68v-56.62"/>
<line class="st0" x1="528.21" y1="418.84" x2="470.7" y2="418.84"/>
<line class="st1" x1="528.21" y1="418.84" x2="470.7" y2="418.84"/>
<path class="st0" d="M372.69,350.8l37.09,68.04l37.09-68.04c0.25-0.47-0.08-1.04-0.61-1.04h-72.96
	C372.77,349.76,372.44,350.33,372.69,350.8z"/>
<line class="st0" x1="409.78" y1="487.91" x2="409.78" y2="418.84"/>
<path class="st0" d="M551.94,351.07V486.6c0,0.74,0.59,1.34,1.33,1.34c9.03,0.05,60.8-2.56,61.54-69.11
	c0.74-66.63-52.38-69.17-61.54-69.11C552.53,349.73,551.94,350.33,551.94,351.07z"/>
<path class="st0" d="M336.36,539.22c0,0-16.11-32.31-66.22-32.31c-47.41,0-77.85,35.49-77.85,78.22c0,42.8,25.91,83.41,79.06,83.41
	c57.46,0,73.94-36.34,73.51-77.74h-49.97"/>
<path class="st0" d="M510.32,599.46c-41.25-23.93-88.36-28.32-88.36-28.32c76.85,0,71.35-32.02,71.35-32.02
	c-1.01-32.51-69.43-28.52-80.55-27.65c-0.87,0.07-1.53,0.79-1.53,1.65v152.09"/>
<path class="st0" d="M519.67,605.3v60.96c0,0.4,0.32,0.72,0.72,0.72h47.79c0.44,0,0.79-0.38,0.72-0.81
	c-0.46-3.16-3.49-15.65-23.94-38.91c-7.23-8.23-15.54-15.28-24.34-21.31"/>
<line class="st0" x1="519.67" y1="516.03" x2="519.67" y2="605.3"/>
<line class="st2" x1="373.36" y1="575.38" x2="373.36" y2="664.33"/>
<line class="st3" x1="357.23" y1="665.43" x2="389.49" y2="665.43"/>
<circle class="st0" cx="373.36" cy="542.41" r="6.45"/>
<path class="st0" d="M670.43,544.33c0,0-5.78-33.64-46.26-33.93c-3.77-0.02-7.22,0.24-10.39,0.76
	c-38.28,6.23-44.98,57.53-9.63,73.51c5.07,2.29,10.04,3.6,18.46,4.99c35.98,5.91,47.82,16.62,47.82,40.21
	c0,26.73-16.82,40.35-45.85,40.6c-25.33,0.22-35.97-10.83-42.68-20.23"/>
<path class="st0" d="M323.98,231.89"/>
</svg>
