<?xml version="1.0" encoding="utf-8"?>
<!-- Generator: Adobe Illustrator 27.4.0, SVG Export Plug-In . SVG Version: 6.00 Build 0)  -->
<svg version="1.1" id="Layer_1" xmlns="http://www.w3.org/2000/svg" xmlns:xlink="http://www.w3.org/1999/xlink" x="0px" y="0px"
	 viewBox="0 0 884.41 884.41" style="enable-background:new 0 0 884.41 884.41;" xml:space="preserve">
<style type="text/css">
	.st0{clip-path:url(#SVGID_00000044137395894879313070000005475285578768345504_);fill:#140020;}
	.st1{clip-path:url(#SVGID_00000067934927373572068900000010403081304342792091_);fill:#FFFFFF;}
	.st2{clip-path:url(#SVGID_00000071520870743287512830000010538939671430562184_);fill:#140020;}
	.st3{clip-path:url(#SVGID_00000065034690138471239930000006860300240919297170_);fill:#140020;}
	.st4{clip-path:url(#SVGID_00000004515355656896766780000000179039721742261427_);fill:#140020;}
	.st5{clip-path:url(#SVGID_00000084504392637214402910000010259039252521411763_);fill:#140020;}
	.st6{clip-path:url(#SVGID_00000042709997591051221820000010607854500398456463_);fill:#140020;}
	.st7{clip-path:url(#SVGID_00000176045466558868544680000002338948253052117668_);fill:#140020;}
	.st8{clip-path:url(#SVGID_00000134242546780949165970000002123747350256108160_);fill:#140020;}
	.st9{clip-path:url(#SVGID_00000121968831064396543390000016523740760661664685_);fill:#FFFFFF;}
	.st10{clip-path:url(#SVGID_00000134952525914715272310000000381477894433238967_);fill:#FFFFFF;}
	.st11{clip-path:url(#SVGID_00000175286127132949626770000004187659323206226067_);fill:#FFFFFF;}
</style>
<g>
	<g>
		<defs>
			<rect id="SVGID_1_" x="54.59" y="309.52" width="792.2" height="150.62"/>
		</defs>
		<clipPath id="SVGID_00000177448987425806293160000017846544666096390048_">
			<use xlink:href="#SVGID_1_"  style="overflow:visible;"/>
		</clipPath>
		<path style="clip-path:url(#SVGID_00000177448987425806293160000017846544666096390048_);fill:#140020;" d="M390.5,313.98h-84.8
			c-7.5,0-14.08,5.46-14.98,12.91c-1.07,8.88,5.92,16.49,14.59,16.49h67.72c4.28,0,7.74,3.47,7.74,7.74c0,0-0.54,19.07-6.81,32.85
			c-16.96,37.3-54.29,35.98-58.62,37.04c-7.35,0.71-13.09,6.89-13.09,14.43c0,3.23,1.07,6.2,2.85,8.61c0.05,0.07,0.1,0.14,0.15,0.21
			c0.14,0.18,0.28,0.36,0.42,0.54c0.5,0.61,1.07,1.18,1.69,1.69c0.12,0.1,0.61,0.48,0.73,0.57c4.27,3.08,11.48,2.88,11.8,2.88
			c85.88-3.25,90.28-82,90.28-104.88v-12.44C410.18,318.7,398.15,313.98,390.5,313.98z"/>
	</g>
	<g>
		<defs>
			<rect id="SVGID_00000089564652593131277540000006325537190795607433_" x="54.59" y="309.52" width="792.2" height="150.62"/>
		</defs>
		<clipPath id="SVGID_00000054963504058615572120000001212886497563528337_">
			<use xlink:href="#SVGID_00000089564652593131277540000006325537190795607433_"  style="overflow:visible;"/>
		</clipPath>
		<polygon style="clip-path:url(#SVGID_00000054963504058615572120000001212886497563528337_);fill:#FFFFFF;" points="389.4,154.54 
			389.63,329.25 408.12,155.52 390.08,329.3 426.63,158.46 390.53,329.4 444.74,163.31 390.97,329.54 462.24,170.03 391.39,329.72 
			478.94,178.54 391.78,329.95 494.66,188.75 392.16,330.22 509.23,200.54 392.5,330.53 522.48,213.8 392.8,330.87 534.28,228.36 
			393.07,331.24 544.49,244.09 393.3,331.64 553,260.79 393.49,332.06 559.72,278.29 393.63,332.5 564.57,296.4 393.73,332.94 
			567.5,314.91 393.77,333.4 568.48,333.63 393.77,333.86 567.5,352.35 393.73,334.32 564.57,370.86 393.63,334.76 559.72,388.97 
			393.49,335.2 553,406.47 393.3,335.62 544.49,423.17 393.07,336.02 534.28,438.9 392.8,336.39 522.48,453.46 392.5,336.73 
			509.23,466.72 392.16,337.04 494.66,478.51 391.78,337.31 478.94,488.72 391.39,337.54 462.24,497.23 390.97,337.72 
			444.74,503.95 390.53,337.86 426.63,508.8 390.08,337.96 408.12,511.74 389.63,338.01 389.4,512.72 389.17,338.01 370.68,511.74 
			388.71,337.96 352.16,508.8 388.26,337.86 334.06,503.95 387.83,337.72 316.56,497.23 387.41,337.54 299.85,488.72 387.01,337.31 
			284.13,478.51 386.64,337.04 269.56,466.72 386.3,336.73 256.31,453.46 385.99,336.39 244.51,438.9 385.72,336.02 234.3,423.17 
			385.49,335.62 225.79,406.47 385.3,335.2 219.07,388.97 385.16,334.76 214.22,370.86 385.07,334.32 211.29,352.35 385.02,333.86 
			210.31,333.63 385.02,333.4 211.29,314.91 385.07,332.94 214.22,296.4 385.16,332.5 219.07,278.29 385.3,332.06 225.79,260.79 
			385.49,331.64 234.3,244.09 385.72,331.24 244.51,228.36 385.99,330.87 256.31,213.8 386.3,330.53 269.56,200.54 386.64,330.22 
			284.13,188.75 387.01,329.95 299.85,178.54 387.41,329.72 316.56,170.03 387.83,329.54 334.06,163.31 388.26,329.4 352.16,158.46 
			388.71,329.3 370.68,155.52 389.17,329.25 		"/>
	</g>
	<g>
		<defs>
			<rect id="SVGID_00000147905027684083707970000007531411042850878607_" x="54.59" y="309.52" width="792.2" height="150.62"/>
		</defs>
		<clipPath id="SVGID_00000070837947805536795530000003177795352343021712_">
			<use xlink:href="#SVGID_00000147905027684083707970000007531411042850878607_"  style="overflow:visible;"/>
		</clipPath>
		<path style="clip-path:url(#SVGID_00000070837947805536795530000003177795352343021712_);fill:#140020;" d="M260.33,453.36
			L260.33,453.36c-8.08,0-14.7-6.61-14.7-14.7V326.68c0-8.08,6.61-14.7,14.7-14.7l0,0c8.08,0,14.7,6.61,14.7,14.7v111.99
			C275.03,446.75,268.41,453.36,260.33,453.36z"/>
	</g>
	<g>
		<defs>
			<rect id="SVGID_00000018958520129275975510000008547652709452438443_" x="54.59" y="309.52" width="792.2" height="150.62"/>
		</defs>
		<clipPath id="SVGID_00000003821862892657319230000014071625159869623683_">
			<use xlink:href="#SVGID_00000018958520129275975510000008547652709452438443_"  style="overflow:visible;"/>
		</clipPath>
		<path style="clip-path:url(#SVGID_00000003821862892657319230000014071625159869623683_);fill:#140020;" d="M663.35,311.98
			L663.35,311.98c-7.24,0-13.17,5.93-13.17,13.17v41.97h-16v-41.97c0-7.24-5.93-13.17-13.17-13.17s-13.17,5.93-13.17,13.17V440.2
			c0,7.24,5.93,13.17,13.17,13.17s13.17-5.93,13.17-13.17v-46.75h16v46.75c0,7.24,5.93,13.17,13.17,13.17l0,0
			c7.24,0,13.17-5.93,13.17-13.17V325.15C676.52,317.9,670.59,311.98,663.35,311.98z"/>
	</g>
	<g>
		<defs>
			<rect id="SVGID_00000113312024018849965350000010077158107566662020_" x="54.59" y="309.52" width="792.2" height="150.62"/>
		</defs>
		<clipPath id="SVGID_00000052802262764151186220000000097673647868608950_">
			<use xlink:href="#SVGID_00000113312024018849965350000010077158107566662020_"  style="overflow:visible;"/>
		</clipPath>
		<path style="clip-path:url(#SVGID_00000052802262764151186220000000097673647868608950_);fill:#140020;" d="M207.05,373.48h-3.88
			c-7.02,0-12.76-5.74-12.76-12.76v-34.57c0-7.79,6.38-14.17,14.17-14.17h1.05c7.79,0,14.17,6.38,14.17,14.17v34.57
			C219.81,367.74,214.07,373.48,207.05,373.48z"/>
	</g>
	<g>
		<defs>
			<rect id="SVGID_00000160163412292093181160000015551578342637273492_" x="54.59" y="309.52" width="792.2" height="150.62"/>
		</defs>
		<clipPath id="SVGID_00000039829238269163944240000001801765906864838580_">
			<use xlink:href="#SVGID_00000160163412292093181160000015551578342637273492_"  style="overflow:visible;"/>
		</clipPath>
		<path style="clip-path:url(#SVGID_00000039829238269163944240000001801765906864838580_);fill:#140020;" d="M580.73,373.55h-3.88
			c-7.02,0-12.76-5.74-12.76-12.76v-34.57c0-7.79,6.38-14.17,14.17-14.17h1.05c7.79,0,14.17,6.38,14.17,14.17v34.57
			C593.49,367.81,587.75,373.55,580.73,373.55z"/>
	</g>
	<g>
		<defs>
			<rect id="SVGID_00000009575427838125891400000002247108159816833983_" x="54.59" y="309.52" width="792.2" height="150.62"/>
		</defs>
		<clipPath id="SVGID_00000096041940048151203570000011402865128484272045_">
			<use xlink:href="#SVGID_00000009575427838125891400000002247108159816833983_"  style="overflow:visible;"/>
		</clipPath>
		<path style="clip-path:url(#SVGID_00000096041940048151203570000011402865128484272045_);fill:#140020;" d="M768.76,309.52
			c-40.01,0-72.44,32.43-72.44,72.44s32.43,72.44,72.44,72.44s72.44-32.43,72.44-72.44S808.77,309.52,768.76,309.52z M768.76,426.03
			c-24.34,0-44.08-19.73-44.08-44.08s19.73-44.08,44.08-44.08s44.08,19.73,44.08,44.08S793.1,426.03,768.76,426.03z"/>
	</g>
	<g>
		<defs>
			<rect id="SVGID_00000085950001865252329970000011902048807752910977_" x="54.59" y="309.52" width="792.2" height="150.62"/>
		</defs>
		<clipPath id="SVGID_00000018221126212483527770000001706605486929560996_">
			<use xlink:href="#SVGID_00000085950001865252329970000011902048807752910977_"  style="overflow:visible;"/>
		</clipPath>
		<path style="clip-path:url(#SVGID_00000018221126212483527770000001706605486929560996_);fill:#140020;" d="M198.17,382.8h-80.85
			c-7.5,0-14.08,5.46-14.98,12.91c-1.07,8.88,5.92,15.14,14.59,15.14h67.53c3.29,0,6.48,2.34,5.95,7.3l0,0
			c0,3.29-2.66,5.95-5.95,5.95h-86.1c-4.87,0-8.86-3.99-8.86-8.86v-88.43c0-8.08-6.61-14.7-14.7-14.7l0,0
			c-8.08,0-14.7,6.61-14.7,14.7v106.45c0,11.17,9.06,20.23,20.23,20.23h119.24c8.08,0,20.23-5.92,20.23-20.23v-29.58
			C219.81,389.04,208.28,382.67,198.17,382.8z"/>
	</g>
	<g>
		<defs>
			<rect id="SVGID_00000101795993049929827980000005534508523969427887_" x="54.59" y="309.52" width="792.2" height="150.62"/>
		</defs>
		<clipPath id="SVGID_00000129914715408960522280000006560998887608698774_">
			<use xlink:href="#SVGID_00000101795993049929827980000005534508523969427887_"  style="overflow:visible;"/>
		</clipPath>
		<path style="clip-path:url(#SVGID_00000129914715408960522280000006560998887608698774_);fill:#140020;" d="M571.86,382.87h-80.85
			c-7.5,0-14.08,5.46-14.98,12.91c-1.07,8.88,5.92,15.14,14.59,15.14h67.53c3.29,0,6.48,2.34,5.95,7.3l0,0
			c0,3.29-2.66,5.95-5.95,5.95h-86.1c-4.87,0-8.86-3.99-8.86-8.86v-88.43c0-8.08-6.61-14.7-14.7-14.7l0,0
			c-8.08,0-14.7,6.61-14.7,14.7v106.45c0,11.17,9.06,20.23,20.23,20.23h119.24c8.08,0,20.23-5.92,20.23-20.23v-29.58
			C593.49,389.1,581.96,382.74,571.86,382.87z"/>
	</g>
	<g>
		<defs>
			<rect id="SVGID_00000030455359212714676920000008013664762582086553_" x="54.59" y="309.52" width="792.2" height="150.62"/>
		</defs>
		<clipPath id="SVGID_00000036250869635385366510000012732221241364647094_">
			<use xlink:href="#SVGID_00000030455359212714676920000008013664762582086553_"  style="overflow:visible;"/>
		</clipPath>
		<polygon style="clip-path:url(#SVGID_00000036250869635385366510000012732221241364647094_);fill:#FFFFFF;" points="
			572.23,249.77 578.86,424.35 590.97,250.06 579.32,424.38 609.58,252.31 579.77,424.46 627.85,256.5 580.21,424.59 645.59,262.57 
			580.64,424.76 662.59,270.46 581.04,424.97 678.68,280.09 581.42,425.23 693.67,291.34 581.78,425.52 707.4,304.1 582.1,425.85 
			719.72,318.23 582.38,426.21 730.5,333.57 582.62,426.6 739.62,349.95 582.82,427.01 746.97,367.19 582.98,427.45 752.48,385.1 
			583.09,427.89 756.09,403.5 583.16,428.35 757.76,422.17 583.18,428.8 757.47,440.91 583.14,429.26 755.21,459.52 583.07,429.71 
			751.03,477.8 582.94,430.15 744.96,495.53 582.77,430.58 737.06,512.53 582.55,430.99 727.44,528.62 582.3,431.37 716.18,543.61 
			582,431.72 703.42,557.34 581.67,432.04 689.3,569.66 581.31,432.32 673.96,580.44 580.92,432.57 657.58,589.56 580.51,432.77 
			640.34,596.91 580.08,432.92 622.42,602.43 579.64,433.04 604.03,606.04 579.18,433.1 585.36,607.7 578.72,433.12 566.61,607.41 
			578.27,433.09 548,605.16 577.81,433.01 529.73,600.97 577.37,432.88 512,594.9 576.95,432.71 494.99,587.01 576.54,432.5 
			478.91,577.38 576.16,432.24 463.92,566.13 575.81,431.95 450.19,553.37 575.49,431.62 437.86,539.24 575.21,431.26 427.08,523.9 
			574.96,430.87 417.97,507.52 574.76,430.45 410.61,490.28 574.6,430.02 405.1,472.37 574.49,429.58 401.49,453.97 574.43,429.12 
			399.83,435.3 574.41,428.67 400.12,416.56 574.44,428.21 402.37,397.95 574.52,427.76 406.56,379.67 574.64,427.31 412.63,361.94 
			574.82,426.89 420.52,344.94 575.03,426.48 430.15,328.85 575.29,426.1 441.4,313.86 575.58,425.75 454.16,300.13 575.91,425.43 
			468.29,287.81 576.27,425.15 483.62,277.03 576.66,424.9 500,267.91 577.07,424.7 517.24,260.56 577.5,424.54 535.16,255.04 
			577.95,424.43 553.56,251.43 578.4,424.37 		"/>
	</g>
	<g>
		<defs>
			<rect id="SVGID_00000018951291024425375900000000936574347483814305_" x="54.59" y="309.52" width="792.2" height="150.62"/>
		</defs>
		<clipPath id="SVGID_00000155831778068258160700000009985329017901082788_">
			<use xlink:href="#SVGID_00000018951291024425375900000000936574347483814305_"  style="overflow:visible;"/>
		</clipPath>
		<polygon style="clip-path:url(#SVGID_00000155831778068258160700000009985329017901082788_);fill:#FFFFFF;" points="
			793.12,148.04 793.35,322.75 811.84,149.02 793.8,322.8 830.35,151.96 794.25,322.9 848.46,156.81 794.69,323.04 865.96,163.53 
			795.11,323.22 882.66,172.04 795.5,323.45 898.38,182.25 795.88,323.72 912.95,194.04 796.22,324.03 926.2,207.3 796.52,324.37 
			938,221.87 796.79,324.74 948.21,237.59 797.02,325.14 956.72,254.29 797.21,325.56 963.44,271.79 797.35,326 968.29,289.9 
			797.45,326.44 971.22,308.41 797.49,326.9 972.2,327.13 797.49,327.36 971.22,345.85 797.45,327.82 968.29,364.36 797.35,328.26 
			963.44,382.47 797.21,328.7 956.72,399.97 797.02,329.12 948.21,416.67 796.79,329.52 938,432.4 796.52,329.89 926.2,446.96 
			796.22,330.23 912.95,460.22 795.88,330.54 898.38,472.02 795.5,330.81 882.66,482.22 795.11,331.04 865.96,490.73 794.69,331.22 
			848.46,497.45 794.25,331.36 830.35,502.3 793.8,331.46 811.84,505.24 793.35,331.51 793.12,506.22 792.89,331.51 774.4,505.24 
			792.43,331.46 755.88,502.3 791.98,331.36 737.78,497.45 791.55,331.22 720.28,490.73 791.13,331.04 703.57,482.22 790.73,330.81 
			687.85,472.02 790.36,330.54 673.28,460.22 790.02,330.23 660.03,446.96 789.71,329.89 648.23,432.4 789.44,329.52 638.02,416.67 
			789.21,329.12 629.51,399.97 789.02,328.7 622.79,382.47 788.88,328.26 617.94,364.36 788.79,327.82 615.01,345.85 788.74,327.36 
			614.03,327.13 788.74,326.9 615.01,308.41 788.79,326.44 617.94,289.9 788.88,326 622.79,271.79 789.02,325.56 629.51,254.29 
			789.21,325.14 638.02,237.59 789.44,324.74 648.23,221.87 789.71,324.37 660.03,207.3 790.02,324.03 673.28,194.04 790.36,323.72 
			687.85,182.25 790.73,323.45 703.57,172.04 791.13,323.22 720.28,163.53 791.55,323.04 737.78,156.81 791.98,322.9 755.88,151.96 
			792.43,322.8 774.4,149.02 792.89,322.75 		"/>
	</g>
	<g>
		<defs>
			<rect id="SVGID_00000039822113654688946980000017456149998131506847_" x="54.59" y="309.52" width="792.2" height="150.62"/>
		</defs>
		<clipPath id="SVGID_00000027573083813878737760000013639481709363252664_">
			<use xlink:href="#SVGID_00000039822113654688946980000017456149998131506847_"  style="overflow:visible;"/>
		</clipPath>
		<polygon style="clip-path:url(#SVGID_00000027573083813878737760000013639481709363252664_);fill:#FFFFFF;" points="
			198.02,222.68 198.25,397.39 216.74,223.66 198.7,397.43 235.25,226.59 199.15,397.53 253.36,231.44 199.59,397.67 270.86,238.16 
			200.01,397.86 287.56,246.67 200.4,398.09 303.28,256.88 200.78,398.36 317.85,268.67 201.12,398.66 331.1,281.93 201.42,399 
			342.9,296.5 201.69,399.38 353.11,312.22 201.92,399.77 361.62,328.92 202.11,400.19 368.34,346.42 202.25,400.63 373.19,364.53 
			202.35,401.08 376.12,383.04 202.39,401.53 377.1,401.76 202.39,401.99 376.12,420.48 202.35,402.45 373.19,439 202.25,402.9 
			368.34,457.1 202.11,403.33 361.62,474.6 201.92,403.75 353.11,491.31 201.69,404.15 342.9,507.03 201.42,404.52 331.1,521.6 
			201.12,404.86 317.85,534.85 200.78,405.17 303.28,546.65 200.4,405.44 287.56,556.86 200.01,405.67 270.86,565.37 199.59,405.86 
			253.36,572.09 199.15,406 235.25,576.94 198.7,406.09 216.74,579.87 198.25,406.14 198.02,580.85 197.79,406.14 179.3,579.87 
			197.33,406.09 160.78,576.94 196.88,406 142.68,572.09 196.45,405.86 125.18,565.37 196.03,405.67 108.47,556.86 195.63,405.44 
			92.75,546.65 195.26,405.17 78.18,534.85 194.92,404.86 64.93,521.6 194.61,404.52 53.13,507.03 194.34,404.15 42.92,491.31 
			194.11,403.75 34.41,474.6 193.92,403.33 27.69,457.1 193.78,402.9 22.84,439 193.69,402.45 19.91,420.48 193.64,401.99 
			18.93,401.76 193.64,401.53 19.91,383.04 193.69,401.08 22.84,364.53 193.78,400.63 27.69,346.42 193.92,400.19 34.41,328.92 
			194.11,399.77 42.92,312.22 194.34,399.38 53.13,296.5 194.61,399 64.93,281.93 194.92,398.66 78.18,268.67 195.26,398.36 
			92.75,256.88 195.63,398.09 108.47,246.67 196.03,397.86 125.18,238.16 196.45,397.67 142.68,231.44 196.88,397.53 160.78,226.59 
			197.33,397.43 179.3,223.66 197.79,397.39 		"/>
	</g>
</g>
</svg>
