<?xml version="1.0" encoding="utf-8"?>
<!-- Generator: Adobe Illustrator 27.4.0, SVG Export Plug-In . SVG Version: 6.00 Build 0)  -->
<svg version="1.1" id="Layer_1" xmlns="http://www.w3.org/2000/svg" xmlns:xlink="http://www.w3.org/1999/xlink" x="0px" y="0px"
	 viewBox="0 0 884.41 884.41" style="enable-background:new 0 0 884.41 884.41;" xml:space="preserve">
<style type="text/css">
	.st0{opacity:0.59;fill:#75BAB6;enable-background:new    ;}
	.st1{fill:#75BAB6;}
	.st2{opacity:0.3;fill:#75BAB6;enable-background:new    ;}
	.st3{opacity:0.49;fill:#75BAB6;enable-background:new    ;}
	.st4{opacity:0.66;fill:none;stroke:#75BAB6;stroke-width:20;stroke-miterlimit:10;enable-background:new    ;}
</style>
<rect x="137.82" y="183.27" class="st0" width="46.46" height="419.1"/>
<polygon class="st0" points="720.67,602.37 674.2,602.37 674.2,196.75 696.48,190.29 720.67,183.27 "/>
<rect x="537.51" y="359.82" class="st0" width="182.64" height="46.46"/>
<rect x="137.83" y="183.28" class="st0" width="179.94" height="46.46"/>
<rect x="137.82" y="313.35" class="st0" width="179.94" height="46.46"/>
<rect x="137.83" y="555.91" class="st0" width="186.04" height="46.46"/>
<rect x="674.2" y="555.91" class="st0" width="46.46" height="46.46"/>
<path class="st1" d="M362.65,271.61L362.65,271.61c0-21.96-17.2-40.08-38.79-41.59v83.19C345.45,311.69,362.65,293.57,362.65,271.61
	z"/>
<path class="st2" d="M362.65,271.61L362.65,271.61c0,21.96-17.2,40.08-38.79,41.59v46.45h1.48c48.42,0,88.04-39.62,88.04-88.04l0,0
	c0-48.42-39.62-88.04-88.04-88.04h-1.48v46.45C345.45,231.52,362.65,249.65,362.65,271.61z"/>
<path class="st2" d="M385.66,359.81h-57.73c-1.36,0-2.72,0.03-4.07,0.08v46.99c2.9-0.38,5.86-0.6,8.86-0.6h43.33
	c37.43,0,68.05,30.62,68.05,68.05v13.52c0,37.43-34.55,66.18-68.05,68.05h-43.33c-3,0-5.75,0-8.86,0v46.39
	c1.35,0.05,2.71,0.08,4.07,0.08h57.73c58.69-1.8,117.26-52.77,117.26-117.26v-8.04C502.92,412.58,450.15,359.81,385.66,359.81z"/>
<path class="st1" d="M372.25,555.9"/>
<path class="st1" d="M372.25,555.9c0,0,79.23,7.75,129.82-145.99c51.18-155.54,130.64-228.21,218.6-226.65v48.58
	c0,0-103.75-2.11-161.56,165.97c-49.04,142.57-89.48,204.54-186.85,204.54V555.9H372.25z"/>
<path class="st3" d="M598.17,555.9c-27.34,0-45.68,13.21-60.67,46.46h35.79H674.2V555.9H598.17z"/>
<circle class="st4" cx="442.2" cy="370.42" r="45.67"/>
</svg>
