<?xml version="1.0" encoding="utf-8"?>
<!-- Generator: Adobe Illustrator 27.4.0, SVG Export Plug-In . SVG Version: 6.00 Build 0)  -->
<svg version="1.1" id="Layer_1" xmlns="http://www.w3.org/2000/svg" xmlns:xlink="http://www.w3.org/1999/xlink" x="0px" y="0px"
	 viewBox="0 0 884.4 884.4" style="enable-background:new 0 0 884.4 884.4;" xml:space="preserve">
<style type="text/css">
	.st0{opacity:0.59;fill:#F90053;enable-background:new    ;}
	.st1{fill:#F90053;}
	.st2{opacity:0.53;fill:#F90053;enable-background:new    ;}
	.st3{opacity:0.49;fill:#F90053;enable-background:new    ;}
	.st4{opacity:0.66;fill:#F90053;stroke:#84F7EE;stroke-width:21.4353;stroke-miterlimit:10;enable-background:new    ;}
</style>
<rect x="129.83" y="217.62" class="st0" width="49.84" height="449.18"/>
<polygon class="st0" points="754.56,666.79 704.73,666.79 704.73,232.08 728.63,225.12 754.56,217.62 "/>
<rect x="558.22" y="406.78" class="st0" width="195.7" height="49.84"/>
<rect x="129.83" y="217.62" class="st0" width="192.81" height="49.84"/>
<rect x="129.83" y="357.05" class="st0" width="192.81" height="49.84"/>
<rect x="129.83" y="616.96" class="st0" width="199.35" height="49.84"/>
<rect x="704.73" y="616.96" class="st0" width="49.84" height="49.84"/>
<path class="st1" d="M370.76,312.25L370.76,312.25c0-23.58-18.43-42.98-41.58-44.59v89.17
	C352.44,355.23,370.76,335.83,370.76,312.25z"/>
<path class="st2" d="M370.76,312.25L370.76,312.25c0,23.58-18.43,42.98-41.58,44.59v49.84h1.61c51.87,0,94.32-42.44,94.32-94.32l0,0
	c0-51.87-42.44-94.32-94.32-94.32h-1.61v49.62C352.44,269.27,370.76,288.78,370.76,312.25z"/>
<path class="st2" d="M395.52,406.78h-61.84c-1.5,0-2.89,0-4.39,0.11v50.37c3.11-0.43,6.32-0.64,9.54-0.64h46.3
	c40.08,0,72.88,32.8,72.88,72.88v14.47c0,40.08-36.98,70.95-72.88,72.88h-46.41c-3.22,0-6.22,0-9.54,0v49.73
	c1.5,0,2.89,0.11,4.39,0.11h61.84c62.91-1.93,125.72-56.59,125.72-125.72v-8.57C521.13,463.37,464.54,406.78,395.52,406.78z"/>
<path class="st1" d="M381.05,616.96"/>
<path class="st1" d="M381.05,616.96c0,0,84.88,8.36,139.12-156.48c54.87-166.66,139.97-244.58,234.29-242.86v52.09
	c0,0-111.25-2.25-173.2,177.91C528.74,600.45,485.34,666.8,380.95,666.8L381.05,616.96L381.05,616.96z"/>
<path class="st3" d="M615.92,616.96c-29.71,0-49.73,14.15-66.05,49.84h38.96h109.79v-49.84H615.92z"/>
<circle class="st4" cx="456.08" cy="418.14" r="48.98"/>
</svg>
