<?xml version="1.0" encoding="utf-8"?>
<!-- Generator: Adobe Illustrator 27.4.0, SVG Export Plug-In . SVG Version: 6.00 Build 0)  -->
<svg version="1.1" id="Layer_1" xmlns="http://www.w3.org/2000/svg" xmlns:xlink="http://www.w3.org/1999/xlink" x="0px" y="0px"
	 viewBox="0 0 884.41 884.41" style="enable-background:new 0 0 884.41 884.41;" xml:space="preserve">
<style type="text/css">
	.st0{opacity:0.47;enable-background:new    ;}
	.st1{opacity:0.52;enable-background:new    ;}
</style>
<path class="st0" d="M558.79,316.28L558.79,316.28c-10.48,0-19.47,7.48-21.33,17.79c-5.17,28.7-19.41,85.29-54.67,117.89
	c-9.36,8.65-24.54,2.06-24.54-10.69v-62.1c0-6.2-2.61-11.79-6.78-15.74c-4.45-4.82-10.82-7.85-17.89-7.85
	c-8.93,0-16.74,4.82-20.97,11.99c-2.13,3.35-3.37,7.33-3.37,11.6v105.25c0,0.04,0,0.08,0,0.13c0,17.31,18.75,28.2,29.39,30.33
	c30.86,6.2,108.2-5.61,141.4-172.64C582.71,328.81,572.48,316.28,558.79,316.28z"/>
<circle class="st1" cx="433.76" cy="380.09" r="24.5"/>
<circle class="st1" cx="369.56" cy="380.09" r="24.5"/>
<g>
	<circle class="st1" cx="142.64" cy="542.79" r="24.5"/>
	<path class="st0" d="M145.78,390.66c-14.72-1.7-27.64,9.78-27.64,24.6v73.33v7.17v43.02h0.02c0.01,0.59,0.05,1.17,0.09,1.76
		c-0.07,0.74-0.11,1.49-0.11,2.26c0,13.53,10.97,24.5,24.5,24.5l0,0l0,0c13.53,0,24.5-10.97,24.5-24.5c0-0.76-0.04-1.51-0.11-2.26
		c0.04-0.58,0.08-1.17,0.09-1.76h0.02v-43.02v-7.17v-26.32c0-15.67,14.35-27.37,29.71-24.27c35.92,7.26,91.78,24.49,93.24,61.59
		c1.93,49.21-96.99,72.04-154.3,77.82c-10.04,1.01-17.66,9.49-17.66,19.58c0,0.2,0,2.79,0,2.98c0,11.42,9.68,20.43,21.07,19.64
		c52.79-3.65,186.97-22.1,193.26-115.45C333.95,482.19,340.6,413.13,145.78,390.66z"/>
	<rect x="118.13" y="488.59" class="st0" width="49.01" height="7.17"/>
</g>
<g>
	<g>
		<circle class="st1" cx="757" cy="240.58" r="23.85"/>
		<g>
			<circle class="st1" cx="588.93" cy="458.43" r="23.85"/>
			<path class="st1" d="M764.12,263.55c9.76-3.31,16.34-12.45,16.34-22.76l0,0c0-16.02-15.4-27.62-30.75-23.06
				c-53.43,15.83-160.02,68.13-184.41,235.77c-0.19,1.31-0.24,2.61-0.19,3.88c-0.02,0.37-0.03,0.74-0.03,1.12
				c0,13.17,10.68,23.85,23.85,23.85c12.05,0,22-8.94,23.61-20.54c0-0.01,0.01-0.02,0.01-0.03c1.02-7.24,1.57-11.67,6.07-28.14
				c1.55-5.67,6.71-9.59,12.59-9.59h82.34c7.21,0,13.06,5.85,13.06,13.06v0.75c0,0.22,0.02,0.43,0.02,0.64
				c-0.03,0.47-0.04,0.94-0.04,1.41c0,13.52,10.96,24.48,24.48,24.48c13.52,0,24.48-10.96,24.48-24.48c0-0.12-0.01-0.24-0.01-0.36
				c0.04-0.56,0.07-1.13,0.07-1.69V331.62c0.03-0.47,0.04-0.95,0.04-1.42c0-13.52-10.96-24.49-24.49-24.49
				c-12.82,0-23.33,9.85-24.39,22.4c-0.1,0.83-0.17,1.66-0.17,2.52v60.65c0,7.21-5.85,13.06-13.06,13.06h-65.9
				c-9.51,0-15.81-9.82-11.88-18.48C657.05,338.97,695.44,286.83,764.12,263.55z"/>
		</g>
	</g>
	<rect x="726.7" y="345.95" class="st0" width="49.01" height="7.17"/>
</g>
<path class="st0" d="M369.56,511.66L369.56,511.66c-13.44,0-24.33-10.89-24.33-24.33V379.91c0-13.44,10.89-24.33,24.33-24.33l0,0
	c13.44,0,24.33,10.89,24.33,24.33v107.42C393.89,500.77,382.99,511.66,369.56,511.66z"/>
</svg>
