<?xml version="1.0" encoding="utf-8"?>
<!-- Generator: Adobe Illustrator 27.4.0, SVG Export Plug-In . SVG Version: 6.00 Build 0)  -->
<svg version="1.1" id="Layer_1" xmlns="http://www.w3.org/2000/svg" xmlns:xlink="http://www.w3.org/1999/xlink" x="0px" y="0px"
	 viewBox="0 0 884.4 884.4" style="enable-background:new 0 0 884.4 884.4;" xml:space="preserve">
<style type="text/css">
	.st0{opacity:0.47;enable-background:new    ;}
	.st1{opacity:0.52;enable-background:new    ;}
</style>
<path class="st0" d="M522.5,333.6c-5.2,28.7-16.2,81.1-51.5,113.7c-11.3,8.4-24.5,4.9-24.5-7.9v-64.9c0-6.2-2.6-11.8-6.8-15.7
	c-4.5-4.8-10.8-7.9-17.9-7.9c-8.9,0-16.7,4.8-21,12c-2.1,3.4-3.4,7.3-3.4,11.6c0,0,0,98.7,0,98.7c0.8,22.3,18.6,31.7,29.2,33.8
	c30.9,6.2,108.6,0,144.8-164.1c2.3-13.1-0.8-21.9-7.4-27.6c-4.4-3.8-10.7-5.8-17.1-5.9C530.3,309.1,525,323,522.5,333.6z"/>
<circle class="st1" cx="422" cy="375.5" r="24.5"/>
<g>
	<circle class="st1" cx="126.6" cy="532.7" r="24.5"/>
	<path class="st0" d="M129.8,380.6c-14.7-1.7-27.6,9.8-27.6,24.6v73.3v7.2v43h0c0,0.6,0.1,1.2,0.1,1.8c-0.1,0.7-0.1,1.5-0.1,2.3
		c0,13.5,11,24.5,24.5,24.5l0,0l0,0c13.5,0,24.5-11,24.5-24.5c0-0.8,0-1.5-0.1-2.3c0-0.6,0.1-1.2,0.1-1.8h0v-43v-7.2v-26.3
		c0-15.7,1.6-26.9,28.2-21.8c35.9,7.3,93.3,22,94.8,59.1c1.9,49.2-97,72-154.3,77.8c-10,1-17,9.5-17.7,19.6
		c-0.8,12.9,7.8,23.5,21.1,24.8c1.3,0.1,2.6,0.1,3.9,0c53.8-3.9,185.4-24.3,191.6-116.8C319.1,478.5,324.6,403.1,129.8,380.6z"/>
	<rect x="102.1" y="478.5" class="st0" width="49" height="7.2"/>
</g>
<g>
	<g>
		<circle class="st1" cx="753.2" cy="235.9" r="23.8"/>
		<g>
			<circle class="st1" cx="585.1" cy="453.8" r="23.8"/>
			<path class="st1" d="M760.3,258.9c9.8-3.3,16.3-12.5,16.3-22.8l0,0c0-16-15.4-27.6-30.8-23.1c-53.4,15.8-160,68.1-184.4,235.8
				c-0.2,1.3-0.2,2.6-0.2,3.9c0,0.4,0,0.7,0,1.1c0,13.2,10.7,23.9,23.8,23.9c12,0,22-8.9,23.6-20.5c0,0,0,0,0,0
				c1-7.2,1.6-11.7,6.1-28.1c1.5-5.7,6.7-9.6,12.6-9.6h82.3c7.2,0,13.1,5.9,13.1,13.1v0.8c0,0.2,0,0.4,0,0.6c0,0.5,0,0.9,0,1.4
				c0,13.5,11,24.5,24.5,24.5c13.5,0,24.5-11,24.5-24.5c0-0.1,0-0.2,0-0.4c0-0.6,0.1-1.1,0.1-1.7V327c0-0.5,0-1,0-1.4
				c0-13.5-11-24.5-24.5-24.5c-12.8,0-23.3,9.9-24.4,22.4c-0.1,0.8-0.2,1.7-0.2,2.5v60.6c0,7.2-5.8,13.1-13.1,13.1h-65.9
				c-9.5,0-15.8-9.8-11.9-18.5C653.3,334.3,691.6,282.2,760.3,258.9z"/>
		</g>
	</g>
	<rect x="722.9" y="341.3" class="st0" width="49" height="7.2"/>
</g>
<path class="st0" d="M357.8,507L357.8,507c-13.4,0-24.3-10.9-24.3-24.3V375.3c0-13.4,10.9-24.3,24.3-24.3l0,0
	c13.4,0,24.3,10.9,24.3,24.3v107.4C382.1,496.1,371.2,507,357.8,507z"/>
<circle class="st1" cx="357.8" cy="375.5" r="24.5"/>
</svg>
