<?xml version="1.0" encoding="utf-8"?>
<!-- Generator: Adobe Illustrator 27.4.0, SVG Export Plug-In . SVG Version: 6.00 Build 0)  -->
<svg version="1.1" id="Layer_1" xmlns="http://www.w3.org/2000/svg" xmlns:xlink="http://www.w3.org/1999/xlink" x="0px" y="0px"
	 viewBox="0 0 884.41 884.41" style="enable-background:new 0 0 884.41 884.41;" xml:space="preserve">
<style type="text/css">
	.st0{fill:none;stroke:#000000;stroke-width:8.0958;stroke-miterlimit:10;}
</style>
<circle class="st0" cx="436.12" cy="413.99" r="23.85"/>
<circle class="st0" cx="213.62" cy="413.99" r="23.85"/>
<path class="st0" d="M411.44,319.03h-11.62c-32.42,0-58.69,26.28-58.69,58.69v10.8c0,8.54,6.92,15.46,15.46,15.46h4.28
	c4.1,0,8.03-1.63,10.93-4.53l50.57-50.57c2.9-2.9,4.53-6.83,4.53-10.93v-3.46C426.9,325.96,419.98,319.03,411.44,319.03z"/>
<path class="st0" d="M531.1,377.73c0-32.42-26.28-58.69-58.69-58.69h-11.62c-8.54,0-15.46,6.92-15.46,15.46v3.46
	c0,4.1,1.63,8.03,4.53,10.93l50.57,50.57c2.9,2.9,6.83,4.53,10.93,4.53h4.28c8.54,0,15.46-6.92,15.46-15.46V377.73z"/>
<path class="st0" d="M341.13,437.82v12.43c0,32.42,26.28,58.69,58.69,58.69h11.62c8.54,0,15.46-6.92,15.46-15.46v-5.09
	c0-4.1-1.63-8.03-4.53-10.93l-50.57-50.57c-2.9-2.9-6.83-4.53-10.93-4.53h-4.28C348.05,422.36,341.13,429.28,341.13,437.82z"/>
<path class="st0" d="M460.79,508.95h11.62c32.42,0,58.69-26.28,58.69-58.69v-12.43c0-8.54-6.92-15.46-15.46-15.46h-4.28
	c-4.1,0-8.03,1.63-10.93,4.53l-50.57,50.57c-2.9,2.9-4.53,6.83-4.53,10.93v5.09C445.33,502.03,452.25,508.95,460.79,508.95z"/>
<path class="st0" d="M188.18,319.03h-11.62c-32.42,0-58.69,26.28-58.69,58.69v10.8c0,8.54,6.92,15.46,15.46,15.46h4.28
	c4.1,0,8.03-1.63,10.93-4.53l50.57-50.57c2.9-2.9,4.53-6.83,4.53-10.93v-3.46C203.65,325.96,196.72,319.03,188.18,319.03z"/>
<path class="st0" d="M307.84,377.73c0-32.42-26.28-58.69-58.69-58.69h-11.62c-8.54,0-15.46,6.92-15.46,15.46v3.46
	c0,4.1,1.63,8.03,4.53,10.93l50.57,50.57c2.9,2.9,6.83,4.53,10.93,4.53h4.28c8.54,0,15.46-6.92,15.46-15.46V377.73z"/>
<path class="st0" d="M755.31,268.56c0-32.42-26.28-58.69-58.69-58.69H685c-8.54,0-15.46,6.92-15.46,15.46v3.46
	c0,4.1,1.63,8.03,4.53,10.93l50.57,50.57c2.9,2.9,6.83,4.53,10.93,4.53h4.28c8.54,0,15.46-6.92,15.46-15.46V268.56z"/>
<path class="st0" d="M117.87,437.82v12.43c0,32.42,26.28,58.69,58.69,58.69h11.62c8.54,0,15.46-6.92,15.46-15.46v-5.09
	c0-4.1-1.63-8.03-4.53-10.93l-50.57-50.57c-2.9-2.9-6.83-4.53-10.93-4.53h-4.28C124.8,422.36,117.87,429.28,117.87,437.82z"/>
<path class="st0" d="M237.53,508.95h11.62c32.42,0,58.69-26.28,58.69-58.69v-12.43c0-8.54-6.92-15.46-15.46-15.46h-4.28
	c-4.1,0-8.03,1.63-10.93,4.53l-50.57,50.57c-2.9,2.9-4.53,6.83-4.53,10.93v5.09C222.07,502.03,229,508.95,237.53,508.95z"/>
<path class="st0" d="M117.87,563.52v12.43c0,32.42,26.28,58.69,58.69,58.69h11.62c8.54,0,15.46-6.92,15.46-15.46v-5.09
	c0-4.1-1.63-8.03-4.53-10.93l-50.57-50.57c-2.9-2.9-6.83-4.53-10.93-4.53h-4.28C124.8,548.06,117.87,554.99,117.87,563.52z"/>
<path class="st0" d="M237.53,634.65h11.62c32.42,0,58.69-26.28,58.69-58.69v-12.43c0-8.54-6.92-15.46-15.46-15.46h-4.28
	c-4.1,0-8.03,1.63-10.93,4.53l-50.57,50.57c-2.9,2.9-4.53,6.83-4.53,10.93v5.09C222.07,627.73,229,634.65,237.53,634.65z"/>
<path class="st0" d="M635.65,320.74h-11.62c-32.42,0-58.69,26.28-58.69,58.69v10.8c0,8.54,6.92,15.46,15.46,15.46h4.28
	c4.1,0,8.03-1.63,10.93-4.53l50.57-50.57c2.9-2.9,4.53-6.83,4.53-10.93v-3.46C651.11,327.66,644.19,320.74,635.65,320.74z"/>
<path class="st0" d="M755.31,379.43c0-32.42-26.28-58.69-58.69-58.69H685c-8.54,0-15.46,6.92-15.46,15.46v3.46
	c0,4.1,1.63,8.03,4.53,10.93l50.57,50.57c2.9,2.9,6.83,4.53,10.93,4.53h4.28c8.54,0,15.46-6.92,15.46-15.46V379.43z"/>
<path class="st0" d="M565.34,439.53v12.43c0,32.42,26.28,58.69,58.69,58.69h11.62c8.54,0,15.46-6.92,15.46-15.46v-5.09
	c0-4.1-1.63-8.03-4.53-10.93l-50.57-50.57c-2.9-2.9-6.83-4.53-10.93-4.53h-4.28C572.26,424.07,565.34,430.99,565.34,439.53z"/>
<path class="st0" d="M685,510.66h11.62c32.42,0,58.69-26.28,58.69-58.69v-12.43c0-8.54-6.92-15.46-15.46-15.46h-4.28
	c-4.1,0-8.03,1.63-10.93,4.53l-50.57,50.57c-2.9,2.9-4.53,6.83-4.53,10.93v5.09C669.54,503.73,676.46,510.66,685,510.66z"/>
<circle class="st0" cx="660.33" cy="415.7" r="23.85"/>
<path class="st0" d="M288.91,516.16h25.75c4.71,0,8.57,3.85,8.57,8.57l0,0c0,4.71-3.85,8.57-8.57,8.57h-25.75
	c-4.71,0-8.57-3.85-8.57-8.57l0,0C280.35,520.02,284.2,516.16,288.91,516.16z"/>
<path class="st0" d="M668.89,286.25h25.75c4.71,0,8.57,3.85,8.57,8.57v0c0,4.71-3.85,8.57-8.57,8.57h-25.75
	c-4.71,0-8.57-3.85-8.57-8.57v0C660.33,290.11,664.18,286.25,668.89,286.25z"/>
</svg>
