<?xml version="1.0" encoding="utf-8"?>
<!-- Generator: Adobe Illustrator 27.4.0, SVG Export Plug-In . SVG Version: 6.00 Build 0)  -->
<svg version="1.1" id="Layer_1" xmlns="http://www.w3.org/2000/svg" xmlns:xlink="http://www.w3.org/1999/xlink" x="0px" y="0px"
	 viewBox="0 0 884.4 884.4" style="enable-background:new 0 0 884.4 884.4;" xml:space="preserve">
<style type="text/css">
	.st0{fill:none;stroke:#000000;stroke-width:7.2753;stroke-miterlimit:10;}
</style>
<g>
	<circle class="st0" cx="444.1" cy="392.4" r="21.4"/>
	<circle class="st0" cx="244.1" cy="392.4" r="21.4"/>
	<path class="st0" d="M421.9,307.1h-10.4c-29.1,0-52.7,23.6-52.7,52.7v9.7c0,7.7,6.2,13.9,13.9,13.9h3.8c3.7,0,7.2-1.5,9.8-4.1
		l45.4-45.4c2.6-2.6,4.1-6.1,4.1-9.8V321C435.8,313.3,429.5,307.1,421.9,307.1z"/>
	<path class="st0" d="M529.4,359.8c0-29.1-23.6-52.7-52.7-52.7h-10.4c-7.7,0-13.9,6.2-13.9,13.9v3.1c0,3.7,1.5,7.2,4.1,9.8
		l45.4,45.4c2.6,2.6,6.1,4.1,9.8,4.1h3.8c7.7,0,13.9-6.2,13.9-13.9L529.4,359.8L529.4,359.8L529.4,359.8z"/>
	<path class="st0" d="M358.7,413.9V425c0,29.1,23.6,52.7,52.7,52.7h10.4c7.7,0,13.9-6.2,13.9-13.9v-4.6c0-3.7-1.5-7.2-4.1-9.8
		L386.3,404c-2.6-2.6-6.1-4.1-9.8-4.1h-3.8C364.9,400,358.7,406.2,358.7,413.9z"/>
	<path class="st0" d="M466.2,477.8h10.4c29.1,0,52.7-23.6,52.7-52.7v-11.2c0-7.7-6.2-13.9-13.9-13.9h-3.8c-3.7,0-7.2,1.5-9.8,4.1
		l-45.4,45.4c-2.6,2.6-4.1,6.1-4.1,9.8v4.6C452.3,471.5,458.5,477.8,466.2,477.8z"/>
	<path class="st0" d="M221.2,307.1h-10.4c-29.1,0-52.7,23.6-52.7,52.7v9.7c0,7.7,6.2,13.9,13.9,13.9h3.8c3.7,0,7.2-1.5,9.8-4.1
		l45.4-45.4c2.6-2.6,4.1-6.1,4.1-9.8V321C235.1,313.3,228.9,307.1,221.2,307.1z"/>
	<path class="st0" d="M328.8,359.8c0-29.1-23.6-52.7-52.7-52.7h-10.4c-7.7,0-13.9,6.2-13.9,13.9v3.1c0,3.7,1.5,7.2,4.1,9.8
		l45.4,45.4c2.6,2.6,6.1,4.1,9.8,4.1h3.8c7.7,0,13.9-6.2,13.9-13.9L328.8,359.8L328.8,359.8z"/>
	<path class="st0" d="M730.9,261.7c0-29.1-23.6-52.7-52.7-52.7h-10.4c-7.7,0-13.9,6.2-13.9,13.9v3.1c0,3.7,1.5,7.2,4.1,9.8
		l45.4,45.4c2.6,2.6,6.1,4.1,9.8,4.1h3.8c7.7,0,13.9-6.2,13.9-13.9L730.9,261.7L730.9,261.7z"/>
	<path class="st0" d="M158.1,413.9V425c0,29.1,23.6,52.7,52.7,52.7h10.4c7.7,0,13.9-6.2,13.9-13.9v-4.6c0-3.7-1.5-7.2-4.1-9.8
		L185.6,404c-2.6-2.6-6.1-4.1-9.8-4.1H172C164.3,400,158.1,406.2,158.1,413.9z"/>
	<path class="st0" d="M265.6,477.8H276c29.1,0,52.7-23.6,52.7-52.7v-11.2c0-7.7-6.2-13.9-13.9-13.9h-3.8c-3.7,0-7.2,1.5-9.8,4.1
		l-45.4,45.4c-2.6,2.6-4.1,6.1-4.1,9.8v4.6C251.7,471.5,257.9,477.8,265.6,477.8z"/>
	<path class="st0" d="M158.1,526.8V538c0,29.1,23.6,52.7,52.7,52.7h10.4c7.7,0,13.9-6.2,13.9-13.9v-4.6c0-3.7-1.5-7.2-4.1-9.8
		L185.6,517c-2.6-2.6-6.1-4.1-9.8-4.1H172C164.3,512.9,158.1,519.1,158.1,526.8z"/>
	<path class="st0" d="M265.6,590.7H276c29.1,0,52.7-23.6,52.7-52.7v-11.2c0-7.7-6.2-13.9-13.9-13.9h-3.8c-3.7,0-7.2,1.5-9.8,4.1
		l-45.4,45.4c-2.6,2.6-4.1,6.1-4.1,9.8v4.6C251.7,584.5,257.9,590.7,265.6,590.7z"/>
	<path class="st0" d="M623.4,308.6h-10.4c-29.1,0-52.7,23.6-52.7,52.7v9.7c0,7.7,6.2,13.9,13.9,13.9h3.8c3.7,0,7.2-1.5,9.8-4.1
		l45.4-45.4c2.6-2.6,4.1-6.1,4.1-9.8v-3.1C637.3,314.9,631,308.6,623.4,308.6z"/>
	<path class="st0" d="M730.9,361.4c0-29.1-23.6-52.7-52.7-52.7h-10.4c-7.7,0-13.9,6.2-13.9,13.9v3.1c0,3.7,1.5,7.2,4.1,9.8
		l45.4,45.4c2.6,2.6,6.1,4.1,9.8,4.1h3.8c7.7,0,13.9-6.2,13.9-13.9L730.9,361.4L730.9,361.4z"/>
	<path class="st0" d="M560.2,415.4v11.2c0,29.1,23.6,52.7,52.7,52.7h10.4c7.7,0,13.9-6.2,13.9-13.9v-4.6c0-3.7-1.5-7.2-4.1-9.8
		l-45.4-45.4c-2.6-2.6-6.1-4.1-9.8-4.1h-3.8C566.4,401.5,560.2,407.7,560.2,415.4z"/>
	<path class="st0" d="M667.7,479.3h10.4c29.1,0,52.7-23.6,52.7-52.7v-11.2c0-7.7-6.2-13.9-13.9-13.9h-3.8c-3.7,0-7.2,1.5-9.8,4.1
		L657.9,451c-2.6,2.6-4.1,6.1-4.1,9.8v4.6C653.8,473.1,660,479.3,667.7,479.3z"/>
	<circle class="st0" cx="645.5" cy="394" r="21.4"/>
	<path class="st0" d="M311.8,484.3h23.1c4.2,0,7.7,3.5,7.7,7.7l0,0c0,4.2-3.5,7.7-7.7,7.7h-23.1c-4.2,0-7.7-3.5-7.7-7.7l0,0
		C304.1,487.7,307.5,484.3,311.8,484.3z"/>
	<path class="st0" d="M653.2,277.7h23.1c4.2,0,7.7,3.5,7.7,7.7l0,0c0,4.2-3.5,7.7-7.7,7.7h-23.1c-4.2,0-7.7-3.5-7.7-7.7l0,0
		C645.5,281.1,649,277.7,653.2,277.7z"/>
</g>
</svg>
