<?xml version="1.0" encoding="utf-8"?>
<!-- Generator: Adobe Illustrator 27.4.0, SVG Export Plug-In . SVG Version: 6.00 Build 0)  -->
<svg version="1.1" id="Layer_1" xmlns="http://www.w3.org/2000/svg" xmlns:xlink="http://www.w3.org/1999/xlink" x="0px" y="0px"
	 viewBox="0 0 884.41 884.41" style="enable-background:new 0 0 884.41 884.41;" xml:space="preserve">
<style type="text/css">
	.st0{fill:none;stroke:#000000;stroke-width:6.0586;stroke-miterlimit:10;}
</style>
<g>
	<circle class="st0" cx="441.85" cy="380.84" r="17.85"/>
	<circle class="st0" cx="275.34" cy="380.84" r="17.85"/>
	<path class="st0" d="M423.38,309.78h-8.7c-24.26,0-43.92,19.67-43.92,43.92v8.08c0,6.39,5.18,11.57,11.57,11.57h3.2
		c3.07,0,6.01-1.22,8.18-3.39l37.84-37.84c2.17-2.17,3.39-5.11,3.39-8.18v-2.59C434.95,314.97,429.77,309.78,423.38,309.78z"/>
	<path class="st0" d="M512.93,353.7c0-24.26-19.67-43.92-43.92-43.92h-8.7c-6.39,0-11.57,5.18-11.57,11.57v2.59
		c0,3.07,1.22,6.01,3.39,8.18l37.84,37.84c2.17,2.17,5.11,3.39,8.18,3.39h3.2c6.39,0,11.57-5.18,11.57-11.57v-8.08L512.93,353.7
		L512.93,353.7z"/>
	<path class="st0" d="M370.77,398.68v9.3c0,24.26,19.67,43.92,43.92,43.92h8.7c6.39,0,11.57-5.18,11.57-11.57v-3.81
		c0-3.07-1.22-6.01-3.39-8.18l-37.84-37.84c-2.17-2.17-5.11-3.39-8.18-3.39h-3.2C375.94,387.1,370.77,392.28,370.77,398.68z"/>
	<path class="st0" d="M460.32,451.9h8.7c24.26,0,43.92-19.67,43.92-43.92v-9.3c0-6.39-5.18-11.57-11.57-11.57h-3.2
		c-3.07,0-6.01,1.22-8.18,3.39l-37.84,37.84c-2.17,2.17-3.39,5.11-3.39,8.18v3.81C448.75,446.72,453.92,451.9,460.32,451.9z"/>
	<path class="st0" d="M256.3,309.78h-8.7c-24.26,0-43.92,19.67-43.92,43.92v8.08c0,6.39,5.18,11.57,11.57,11.57h3.2
		c3.07,0,6.01-1.22,8.18-3.39l37.84-37.84c2.17-2.17,3.39-5.11,3.39-8.18v-2.59C267.88,314.97,262.69,309.78,256.3,309.78z"/>
	<path class="st0" d="M345.85,353.7c0-24.26-19.67-43.92-43.92-43.92h-8.7c-6.39,0-11.57,5.18-11.57,11.57v2.59
		c0,3.07,1.22,6.01,3.39,8.18l37.84,37.84c2.17,2.17,5.11,3.39,8.18,3.39h3.2c6.39,0,11.57-5.18,11.57-11.57L345.85,353.7
		L345.85,353.7z"/>
	<path class="st0" d="M680.72,272c0-24.26-19.67-43.92-43.92-43.92h-8.7c-6.39,0-11.57,5.18-11.57,11.57v2.59
		c0,3.07,1.22,6.01,3.39,8.18l37.84,37.84c2.17,2.17,5.11,3.39,8.18,3.39h3.2c6.39,0,11.57-5.18,11.57-11.57L680.72,272L680.72,272z
		"/>
	<path class="st0" d="M203.69,398.68v9.3c0,24.26,19.67,43.92,43.92,43.92h8.7c6.39,0,11.57-5.18,11.57-11.57v-3.81
		c0-3.07-1.22-6.01-3.39-8.18l-37.84-37.84c-2.17-2.17-5.11-3.39-8.18-3.39h-3.2C208.87,387.1,203.69,392.28,203.69,398.68z"/>
	<path class="st0" d="M293.24,451.9h8.7c24.26,0,43.92-19.67,43.92-43.92v-9.3c0-6.39-5.18-11.57-11.57-11.57h-3.2
		c-3.07,0-6.01,1.22-8.18,3.39l-37.84,37.84c-2.17,2.17-3.39,5.11-3.39,8.18v3.81C281.67,446.72,286.85,451.9,293.24,451.9z"/>
	<path class="st0" d="M203.69,492.74v9.3c0,24.26,19.67,43.92,43.92,43.92h8.7c6.39,0,11.57-5.18,11.57-11.57v-3.81
		c0-3.07-1.22-6.01-3.39-8.18l-37.84-37.84c-2.17-2.17-5.11-3.39-8.18-3.39h-3.2C208.87,481.17,203.69,486.36,203.69,492.74z"/>
	<path class="st0" d="M293.24,545.98h8.7c24.26,0,43.92-19.67,43.92-43.92v-9.3c0-6.39-5.18-11.57-11.57-11.57h-3.2
		c-3.07,0-6.01,1.22-8.18,3.39l-37.84,37.84c-2.17,2.17-3.39,5.11-3.39,8.18v3.81C281.67,540.79,286.85,545.98,293.24,545.98z"/>
	<path class="st0" d="M591.17,311.06h-8.7c-24.26,0-43.92,19.67-43.92,43.92v8.08c0,6.39,5.18,11.57,11.57,11.57h3.2
		c3.07,0,6.01-1.22,8.18-3.39l37.84-37.84c2.17-2.17,3.39-5.11,3.39-8.18v-2.59C602.74,316.23,597.57,311.06,591.17,311.06z"/>
	<path class="st0" d="M680.72,354.97c0-24.26-19.67-43.92-43.92-43.92h-8.7c-6.39,0-11.57,5.18-11.57,11.57v2.59
		c0,3.07,1.22,6.01,3.39,8.18l37.84,37.84c2.17,2.17,5.11,3.39,8.18,3.39h3.2c6.39,0,11.57-5.18,11.57-11.57L680.72,354.97
		L680.72,354.97z"/>
	<path class="st0" d="M538.56,399.96v9.3c0,24.26,19.67,43.92,43.92,43.92h8.7c6.39,0,11.57-5.18,11.57-11.57v-3.81
		c0-3.07-1.22-6.01-3.39-8.18l-37.84-37.84c-2.17-2.17-5.11-3.39-8.18-3.39h-3.2C543.74,388.38,538.56,393.56,538.56,399.96z"/>
	<path class="st0" d="M628.11,453.18h8.7c24.26,0,43.92-19.67,43.92-43.92v-9.3c0-6.39-5.18-11.57-11.57-11.57h-3.2
		c-3.07,0-6.01,1.22-8.18,3.39l-37.84,37.84c-2.17,2.17-3.39,5.11-3.39,8.18v3.81C616.54,448,621.72,453.18,628.11,453.18z"/>
	<circle class="st0" cx="609.64" cy="382.12" r="17.85"/>
	<path class="st0" d="M331.69,457.3h19.27c3.52,0,6.41,2.88,6.41,6.41l0,0c0,3.52-2.88,6.41-6.41,6.41h-19.27
		c-3.52,0-6.41-2.88-6.41-6.41l0,0C325.28,460.19,328.16,457.3,331.69,457.3z"/>
	<path class="st0" d="M616.05,285.25h19.27c3.52,0,6.41,2.88,6.41,6.41l0,0c0,3.52-2.88,6.41-6.41,6.41h-19.27
		c-3.52,0-6.41-2.88-6.41-6.41l0,0C609.64,288.13,612.53,285.25,616.05,285.25z"/>
</g>
</svg>
