<?xml version="1.0" encoding="utf-8"?>
<!-- Generator: Adobe Illustrator 27.4.0, SVG Export Plug-In . SVG Version: 6.00 Build 0)  -->
<svg version="1.1" id="Layer_1" xmlns="http://www.w3.org/2000/svg" xmlns:xlink="http://www.w3.org/1999/xlink" x="0px" y="0px"
	 viewBox="0 0 2799.8 2588" style="enable-background:new 0 0 2799.8 2588;" xml:space="preserve">
<style type="text/css">
	.st0{fill-rule:evenodd;clip-rule:evenodd;}
</style>
<g transform="rotate(-20.588 523.45 1310.9)">
	<path class="st0" d="M-59.6,2171.8c-12.3,40.2-2.3,85,20.5,126.2c31.4,56.5,83.4,98.6,144.6,119.3c16.8,5.7,35.4,10.6,53.9,13
		c20.5,2.6,179.9,36.4,256.8-182.5c27.5-81,69.1-313.8,69.1-313.8c0-0.1,0.1-0.1,0.1-0.1c168.3,10.6,265.7-48.2,315.2-91.1
		c66.2-57.3,97.8-104.3,121.3-185.1c52.5-190.2-66.6-369.7-245.3-424.5c-25.7-7.9-51.6-12.6-77.3-14.3c-0.1,0-0.1-0.1-0.1-0.1
		l37.6-236.2c0,0,0-0.1,0.1-0.1c105-62.1,214.7-136.8,302.4-219c79.5-74.4,141.3-165.9,178.8-268.2c36.7-99.9,40.2-182.1,3.1-245.8
		c-21.1-36.2-61.4-56.6-103.1-52.6c-90.2,8.7-151.7,49.9-250.9,180.5c-121,166.3-138,437.6-138,437.6l0,0
		c-248.1,122.9-509,225.4-591.6,501.6l0,0c-75.8,246.9,72.1,490.7,315.8,586c36.9,14.4,108.8,26.9,108.8,27l0,0
		c0,0-25.9,186.2-69.9,325.6c-41,114.9-115.8,167.3-215,157.1l0,0c-62.9-10-129.5-37.9-103.4-55.3c0,0,0,0,0.1,0
		c57-10.2,126.6-32.9,146.9-99c25.3-82.3-17.1-168.3-94.5-192C48.9,2042.1-34.4,2089.6-59.6,2171.8L-59.6,2171.8z M612,997.2
		l-35.1,220.7l-0.1,0.1c-144.3-0.2-277.4,91.8-321.4,235.3c-49.8,162.3,123.5,298.3,130.2,258.4v-0.1
		c-66.6-56.2-83.8-101.6-56.9-189.2c30.4-99.1,124.5-161.2,224.6-156.5c0,0.1,0.1,0.1,0.1,0.1l-83.8,525.5l-0.1,0.1
		c-225-29.3-417.7-274.5-330.5-520.6l0,0C212.2,1175.9,395.4,1123.7,612,997.2L612,997.2L612,997.2z M492.1,1891.7l83.4-523.6
		l0.1-0.1c11.3,1.7,22.6,4.2,33.9,7.6c119.1,36.5,205.5,165.9,167.6,290.4C745.1,1772.5,680.6,1888,492.1,1891.7L492.1,1891.7z
		 M655.2,796.8L655.2,796.8c30-212.9,226.4-532.4,365.2-509.1c19.2,2.9,69.9,24.8,23.8,124.2C943.9,628.5,655.2,796.8,655.2,796.8z"
		/>
</g>
<g>
	<path d="M1209.1,1365.2v-26.6c74.2-3.6,79.2-11.5,79.2-63.4v-260.6c0-36.7-13-39.6-42.5-43.2l-21.6-3.6V944
		c55.4-6.5,117.4-20.9,159.8-36v367.2c0,53.3,4.3,59.8,77.8,63.4v26.6H1209.1L1209.1,1365.2z"/>
	<path d="M1749.8,1168.6l-36,18.7c-16.6,8.6-29.5,12.2-41.8,12.2c-87.1,0-139.7-61.9-139.7-136.1c0-64.1,51.1-155.5,166.3-155.5
		c100.1,0,159.1,85,159.1,182.9c0,130.3-87.1,222.5-189.4,262.8c-27.4,10.8-74.9,20.2-105.8,22.3l-5-27.4
		C1671.3,1319.8,1730.3,1257.2,1749.8,1168.6z M1683.5,938.2c-38.9,0.7-55.4,34.6-55.4,95.8c0,62.6,33.8,114.5,87.1,114.5
		c18,0,29.5-5,39.6-9.4c2.9-18.7,3.6-36.7,3.6-51.8C1758.4,1017.4,1739,937.5,1683.5,938.2z"/>
	<path d="M2114.8,1168.6l-36,18.7c-16.6,8.6-29.5,12.2-41.8,12.2c-87.1,0-139.7-61.9-139.7-136.1c0-64.1,51.1-155.5,166.3-155.5
		c100.1,0,159.1,85,159.1,182.9c0,130.3-87.1,222.5-189.4,262.8c-27.4,10.8-74.9,20.2-105.8,22.3l-5-27.4
		C2036.3,1319.8,2095.4,1257.2,2114.8,1168.6z M2048.6,938.2c-38.9,0.7-55.4,34.6-55.4,95.8c0,62.6,33.8,114.5,87.1,114.5
		c18,0,29.5-5,39.6-9.4c2.9-18.7,3.6-36.7,3.6-51.8C2123.4,1017.4,2104,937.5,2048.6,938.2z"/>
	<path d="M2412.1,1088.7c17.3-8.6,36-13.7,47.5-13.7c78.5,0,134.6,53.3,134.6,135.4c0,90.7-69.8,163.4-165.6,163.4
		c-92.2,0-163.4-69.1-163.4-184.3c0-146.9,111.6-233.3,195.1-263.5c21.6-7.9,76.3-18.7,107.3-22.3l4.3,28.8
		c-20.9,5-51.8,13.7-77,25.9c-36.7,18-97.9,58.3-119.5,147.6L2412.1,1088.7z M2416.5,1126.8c-17.3,0-31.7,2.9-46.1,7.9
		c-2.9,12.2-5,38.9-5,58.3c0,95,31.7,149.8,78.5,149.8c44.6,0,55.4-56.2,55.4-101.5C2499.3,1173.7,2465.4,1126.8,2416.5,1126.8z"/>
</g>
</svg>
