<?xml version="1.0" encoding="utf-8"?>
<!-- Generator: Adobe Illustrator 27.4.0, SVG Export Plug-In . SVG Version: 6.00 Build 0)  -->
<svg version="1.1" id="Layer_1" xmlns="http://www.w3.org/2000/svg" xmlns:xlink="http://www.w3.org/1999/xlink" x="0px" y="0px"
	 viewBox="0 0 3161.3 2588" style="enable-background:new 0 0 3161.3 2588;" xml:space="preserve">
<style type="text/css">
	.st0{fill-rule:evenodd;clip-rule:evenodd;}
</style>
<g transform="rotate(-20.588 523.45 1310.9)">
	<path class="st0" d="M-119.8,2149.2c-12.3,40.2-2.3,85,20.5,126.2c31.4,56.5,83.4,98.6,144.6,119.3c16.8,5.7,35.4,10.6,53.9,13
		c20.5,2.6,179.9,36.4,256.8-182.5c27.5-81,69.1-313.8,69.1-313.8c0-0.1,0.1-0.1,0.1-0.1c168.3,10.6,265.7-48.2,315.2-91.1
		c66.2-57.3,97.8-104.3,121.3-185.1c52.5-190.2-66.6-369.7-245.3-424.5c-25.7-7.9-51.6-12.6-77.3-14.3c-0.1,0-0.1-0.1-0.1-0.1
		L576.6,960c0,0,0-0.1,0.1-0.1c105-62.1,214.7-136.8,302.4-219c79.5-74.4,141.3-165.9,178.8-268.2c36.7-99.9,40.2-182.1,3.1-245.8
		c-21.1-36.2-61.4-56.6-103.1-52.6C867.7,183,806.2,224.2,707,354.8C586,521.1,569,792.4,569,792.4l0,0
		C320.9,915.3,60,1017.8-22.6,1294l0,0c-75.8,246.9,72.1,490.7,315.8,586c36.9,14.4,108.8,26.9,108.8,27l0,0
		c0,0-25.9,186.2-69.9,325.6c-41,114.9-115.8,167.3-215,157.1l0,0c-62.9-10-129.5-37.9-103.4-55.3c0,0,0,0,0.1,0
		c57-10.2,126.6-32.9,146.9-99c25.3-82.3-17.1-168.3-94.5-192C-11.3,2019.5-94.6,2067-119.8,2149.2L-119.8,2149.2z M551.8,974.6
		l-35.1,220.7l-0.1,0.1c-144.3-0.2-277.4,91.8-321.4,235.3C145.4,1593,318.7,1729,325.4,1689.1v-0.1
		c-66.6-56.2-83.8-101.6-56.9-189.2c30.4-99.1,124.5-161.2,224.6-156.5c0,0.1,0.1,0.1,0.1,0.1l-83.8,525.5l-0.1,0.1
		c-225-29.3-417.7-274.5-330.5-520.6l0,0C152,1153.3,335.2,1101.1,551.8,974.6L551.8,974.6L551.8,974.6z M431.9,1869.1l83.4-523.6
		l0.1-0.1c11.3,1.7,22.6,4.2,33.9,7.6c119.1,36.5,205.5,165.9,167.6,290.4C684.9,1749.9,620.4,1865.4,431.9,1869.1L431.9,1869.1z
		 M595,774.2L595,774.2c30-212.9,226.4-532.4,365.2-509.1c19.2,2.9,69.9,24.8,23.8,124.2C883.7,605.9,595,774.2,595,774.2z"/>
</g>
<g>
	<path d="M1064.8,1044.3l6.5-13c19.7-9.6,41.3-22.1,64.8-37.4c23.5-15.4,47.6-32.2,72.4-50.4c24.7-18.2,48.8-36.6,72.4-55.1
		c23.5-18.5,44.9-35.9,64.1-52.2c19.2-16.3,35.2-30.2,47.9-41.8c12.7-11.5,20.8-19,24.1-22.3l5.8,3.6c-2.9,3.8-10.9,11.5-24.1,23
		c-13.2,11.5-29.8,25.6-49.7,42.1c-19.9,16.6-41.9,34.3-65.9,53.3c-24,19-49,37.8-74.9,56.5c-25.9,18.7-51.1,36.2-75.6,52.6
		C1108,1019.6,1085.5,1033.3,1064.8,1044.3z M1436.4,753.4h12.2L1170,1086.8h-52.6c16.8-13.9,32-27,45.7-39.2
		c13.7-12.2,27.6-25.4,41.8-39.6c14.2-14.2,30.6-31.3,49.3-51.5c18.7-20.2,41.2-45,67.3-74.5c26.2-29.5,58-66.1,95.4-109.8
		L1436.4,753.4z"/>
	<path d="M1211,1179.7l-2.9-3.6c26.9-2.9,56.4-11.4,88.6-25.6c32.2-14.2,64.9-32.4,98.3-54.7c33.4-22.3,65.5-47,96.5-74.2
		c31-27.1,58.6-54.8,82.8-83.2c24.2-28.3,43.6-55.7,58-82.1c14.4-26.4,21.6-50.2,21.6-71.3c0-22.1-12.2-33.1-36.7-33.1
		c-15.4,0-32.5,4.8-51.5,14.4c-19,9.6-37.9,22.2-56.9,37.8c-19,15.6-36.4,32.8-52.2,51.5s-28.6,37.3-38.2,55.8
		c-9.6,18.5-14.4,35.2-14.4,50c0,18.7,9.4,28.1,28.1,28.1c13.4,0,28.2-4.3,44.3-13c16.1-8.6,31.7-19.9,46.8-33.8
		c15.1-13.9,28.2-29.2,39.2-45.7c11-16.6,18-32.5,20.9-47.9h5.8c-3.8,16.3-11.5,33.1-23,50.4c-11.5,17.3-25.2,33.1-41,47.5
		c-15.8,14.4-32.2,26-49,34.9c-16.8,8.9-32.4,13.3-46.8,13.3c-28.3,0-42.5-17.3-42.5-51.8c0-17.3,4.7-35.2,14-53.6
		c9.4-18.5,22-36.2,37.8-53.3c15.8-17,33.8-32.4,54-46.1c20.2-13.7,40.9-24.5,62.3-32.4c21.4-7.9,42.1-11.9,62.3-11.9
		c17.8,0,31,4.6,39.6,13.7c8.6,9.1,13,23.5,13,43.2c0,23.5-6.6,48.6-19.8,75.2c-13.2,26.6-31.4,53.4-54.7,80.3
		c-23.3,26.9-50,52.8-80.3,77.8c-30.2,25-62.5,47.5-96.8,67.7c-34.3,20.2-69.1,36.8-104.4,50
		C1278.3,1167.3,1244.1,1175.8,1211,1179.7z"/>
	<path d="M1498.3,1179.7l-2.9-3.6c26.9-2.9,56.4-11.4,88.6-25.6c32.2-14.2,64.9-32.4,98.3-54.7c33.4-22.3,65.5-47,96.5-74.2
		c31-27.1,58.6-54.8,82.8-83.2c24.2-28.3,43.6-55.7,58-82.1c14.4-26.4,21.6-50.2,21.6-71.3c0-22.1-12.2-33.1-36.7-33.1
		c-15.4,0-32.5,4.8-51.5,14.4c-19,9.6-37.9,22.2-56.9,37.8c-19,15.6-36.4,32.8-52.2,51.5s-28.6,37.3-38.2,55.8
		c-9.6,18.5-14.4,35.2-14.4,50c0,18.7,9.4,28.1,28.1,28.1c13.4,0,28.2-4.3,44.3-13c16.1-8.6,31.7-19.9,46.8-33.8
		c15.1-13.9,28.2-29.2,39.2-45.7c11-16.6,18-32.5,20.9-47.9h5.8c-3.8,16.3-11.5,33.1-23,50.4c-11.5,17.3-25.2,33.1-41,47.5
		c-15.8,14.4-32.2,26-49,34.9c-16.8,8.9-32.4,13.3-46.8,13.3c-28.3,0-42.5-17.3-42.5-51.8c0-17.3,4.7-35.2,14-53.6
		c9.4-18.5,22-36.2,37.8-53.3c15.8-17,33.8-32.4,54-46.1c20.2-13.7,40.9-24.5,62.3-32.4c21.4-7.9,42.1-11.9,62.3-11.9
		c17.8,0,31,4.6,39.6,13.7c8.6,9.1,13,23.5,13,43.2c0,23.5-6.6,48.6-19.8,75.2c-13.2,26.6-31.4,53.4-54.7,80.3
		c-23.3,26.9-50,52.8-80.3,77.8c-30.2,25-62.5,47.5-96.8,67.7c-34.3,20.2-69.1,36.8-104.4,50
		C1565.6,1167.3,1531.4,1175.8,1498.3,1179.7z"/>
	<path d="M2360.8,665.6l2.9,3.6c-26.9,2.4-56.4,10.8-88.6,25.2c-32.2,14.4-64.9,32.8-98.3,55.1c-33.4,22.3-65.4,46.9-96.1,73.8
		c-30.7,26.9-58.3,54.5-82.8,82.8c-24.5,28.3-43.9,55.7-58.3,82.1c-14.4,26.4-21.6,50.2-21.6,71.3c0,22.6,12.2,33.8,36.7,33.8
		c15.4,0,32.5-4.8,51.5-14.4c19-9.6,37.9-22.2,56.9-37.8c19-15.6,36.5-32.8,52.6-51.5c16.1-18.7,28.9-37.3,38.5-55.8
		c9.6-18.5,14.4-35.2,14.4-50c0-18.7-9.4-28.1-28.1-28.1c-13.4,0-28.3,4.3-44.6,13c-16.3,8.6-32,19.9-47.2,33.8
		c-15.1,13.9-28.2,29.2-39.2,45.7c-11,16.6-18,32.5-20.9,47.9h-5.8c3.8-16.8,11.5-33.7,23-50.8c11.5-17,25.2-32.8,41-47.2
		c15.8-14.4,32.2-26,49-34.9c16.8-8.9,32.4-13.3,46.8-13.3c28.3,0,42.5,17.3,42.5,51.8c0,17.3-4.7,35.2-14,53.6
		c-9.4,18.5-22,36.2-37.8,53.3c-15.8,17-33.7,32.4-53.6,46.1c-19.9,13.7-40.7,24.5-62.3,32.4c-21.6,7.9-42.5,11.9-62.6,11.9
		c-35,0-52.6-19-52.6-56.9c0-23.5,6.6-48.6,19.8-75.2c13.2-26.6,31.4-53.4,54.7-80.3c23.3-26.9,50-52.8,80.3-77.8
		c30.2-25,62.5-47.5,96.8-67.7c34.3-20.2,69.1-37,104.4-50.4C2293.5,677.4,2327.7,669,2360.8,665.6z"/>
</g>
<g>
	<path d="M2017.2,1369.9c-27.8,31.2-47.5,55.8-59,73.8c-11.5,18-17.3,33-17.3,45c0,11,4.3,16.6,13,16.6c9.1,0,19.4-3.6,31-10.8
		c11.5-7.2,25.8-19.1,42.8-35.6c17-16.6,38.5-39.2,64.4-68l8.6-9.4h7.2l-6.5,7.2c-38.9,44.2-69.7,75.4-92.5,93.6
		c-22.8,18.2-41.9,27.4-57.2,27.4c-16.8,0-25.2-9.4-25.2-28.1c0-29.3,16.6-62.6,49.7-100.1c9.6-11.5,18.7-22.4,27.4-32.8
		c8.6-10.3,18.5-21.6,29.5-33.8c11-12.2,24.7-27.1,41-44.6c16.3-17.5,37-39.5,61.9-65.9c25-26.4,55.7-58.8,92.2-97.2
		c8.2,0,17.5-0.7,28.1-2.2c10.6-1.4,21.1-3.6,31.7-6.5c-15.4,11-37.2,30.1-65.5,57.2c-28.3,27.1-60.2,59.2-95.8,96.1
		C2091.1,1288.8,2054.7,1328.1,2017.2,1369.9z M2013.6,1220.1v-6.5h370.8v6.5H2013.6z"/>
	<path d="M2084.2,1509.6c-7.7,0-13.6-3.4-17.6-10.1c-4.1-6.7-6.1-16.1-6.1-28.1c0-16.3,4.8-33.6,14.4-51.8
		c9.6-18.2,22.6-35.9,38.9-52.9c16.3-17,34.6-32.5,54.7-46.4c20.2-13.9,40.9-25,62.3-33.1c21.4-8.2,41.6-12.2,60.8-12.2
		c16.3,0,24.5,6.2,24.5,18.7c0,11.5-7.4,26.3-22.3,44.3c-14.9,18-33.6,38.8-56.2,62.3c-17.8,18.7-36.5,36.4-56.2,52.9
		c-19.7,16.6-38,30.1-55.1,40.7C2109.3,1504.3,2095.2,1509.6,2084.2,1509.6z M2084.9,1504.5c9.1,0,21.5-4.6,37.1-13.7
		c15.6-9.1,33-21.8,52.2-38.2c19.2-16.3,39.1-35,59.8-56.2c22.6-23.5,40.8-43.8,54.7-60.8c13.9-17,20.9-30.8,20.9-41.4
		c0-8.2-5.3-12.2-15.8-12.2c-9.6,0-21.7,3.8-36.4,11.5c-14.6,7.7-30.2,17.9-46.8,30.6c-16.6,12.7-33,26.8-49.3,42.1
		c-16.3,15.4-31.2,31-44.6,46.8c-13.4,15.8-24.2,30.6-32.4,44.3c-8.2,13.7-12.2,25.1-12.2,34.2
		C2071.9,1500.2,2076.3,1504.5,2084.9,1504.5z M2318.9,1388.6c-15.8,17.8-31,31.6-45.4,41.4c-14.4,9.8-26.6,14.8-36.7,14.8
		c-17.3,0-25.9-8.4-25.9-25.2c0-10.1,2.5-20,7.6-29.9c5-9.8,13.8-22,26.3-36.4h34.6l-43.9,49c-7.2,7.2-10.8,15.6-10.8,25.2
		c0,8.6,4.3,13,13,13c8.2,0,18.7-4.4,31.7-13.3c13-8.9,26.4-21,40.3-36.4l8.6-9.4h7.2L2318.9,1388.6z"/>
</g>
<g>
	<path d="M2245.8,1632.1c0,21.6-7.4,41.6-22.3,60.1c-14.9,18.5-34.3,35.6-58.3,51.5c-24,15.8-50.4,30.8-79.2,45
		c-28.8,14.2-57.4,27.8-85.7,41c-28.3,13.2-53.9,26.4-76.7,39.6c-22.8,13.2-40.4,26.8-52.9,40.7v-1.4c4.3-4.8,8.6-8.8,13-11.9
		c4.3-3.1,10.8-4.7,19.4-4.7c11.5,0,24.1,1.8,37.8,5.4c13.7,3.6,27.2,7.2,40.7,10.8c13.4,3.6,25.9,5.4,37.4,5.4
		c16.8,0,32.3-3.6,46.4-10.8c14.2-7.2,28.9-20.2,44.3-38.9l2.9,4.3c-12.5,19.2-26.9,32.5-43.2,40c-16.3,7.4-33.4,11.2-51.1,11.2
		c-11.5,0-24.1-1.8-37.8-5.4c-13.7-3.6-27.2-7.2-40.7-10.8c-13.4-3.6-26.2-5.4-38.2-5.4c-9.6,0-16.8,1.8-21.6,5.4
		c-4.8,3.6-9.1,7.8-13,12.6v-5.8c8.6-11.5,23.3-24.1,43.9-37.8c20.6-13.7,44.4-28.3,71.3-43.9c26.9-15.6,54.2-31.8,82.1-48.6
		c27.8-16.8,53.8-34.3,77.8-52.6c24-18.2,43.4-37.1,58.3-56.5c14.9-19.4,22.3-39.2,22.3-59.4c0-20.2-12-30.2-36-30.2
		c-14.9,0-30.7,4.6-47.5,13.7c-16.8,9.1-33.4,21.6-49.7,37.4c-16.3,15.8-31.2,33.8-44.6,54c-13.4,20.2-24.2,41.3-32.4,63.4h-5.8
		c7.7-23,18.4-45,32-65.9s29-39.5,46.1-55.8c17-16.3,34.3-29.2,51.8-38.5c17.5-9.4,34.2-14,50-14c18.7,0,33.2,4.9,43.6,14.8
		C2240.6,1599.9,2245.8,1613.9,2245.8,1632.1z"/>
	<path d="M2496.3,1581c9.6,0,16.4,2.2,20.5,6.5c4.1,4.3,6.1,12,6.1,23c0,14.9-5.4,32.9-16.2,54c-10.8,21.1-25.3,43.3-43.6,66.6
		c-18.2,23.3-38.4,46.2-60.5,68.8c-22.1,22.6-44.6,43-67.7,61.2c-23,18.2-44.9,32.9-65.5,43.9c-20.6,11-38.4,16.6-53.3,16.6
		c-9.1,0-15.6-2.8-19.4-8.3c-3.8-5.5-5.8-15.2-5.8-29.2c0-19.2,4.8-40,14.4-62.3c9.6-22.3,22.6-44.8,38.9-67.3
		c16.3-22.6,34.9-44.3,55.8-65.2c20.9-20.9,42.7-39.5,65.5-55.8c22.8-16.3,45.5-29.2,68-38.5C2456.3,1585.7,2477.1,1581,2496.3,1581
		z M2517.2,1610.5c0-15.4-6.2-23-18.7-23c-13.9,0-30.8,5.4-50.8,16.2c-19.9,10.8-40.9,25.3-63,43.6c-22.1,18.2-43.9,38.6-65.5,61.2
		c-21.6,22.6-41.3,45.5-59,68.8c-17.8,23.3-31.9,45.6-42.5,67c-10.6,21.4-16.1,39.7-16.6,55.1c0,6.2,1.2,10.7,3.6,13.3
		c2.4,2.6,6.7,4,13,4c13.9,0,30.8-5.5,50.8-16.6c19.9-11,41.2-25.7,63.7-43.9c22.6-18.2,44.8-38.5,66.6-60.8
		c21.8-22.3,41.6-45,59.4-68c17.8-23,32-44.8,42.8-65.2C2511.8,1641.6,2517.2,1624.5,2517.2,1610.5z"/>
	<path d="M2751.9,1581c9.6,0,16.4,2.2,20.5,6.5c4.1,4.3,6.1,12,6.1,23c0,14.9-5.4,32.9-16.2,54c-10.8,21.1-25.3,43.3-43.6,66.6
		c-18.2,23.3-38.4,46.2-60.5,68.8c-22.1,22.6-44.6,43-67.7,61.2c-23,18.2-44.9,32.9-65.5,43.9c-20.6,11-38.4,16.6-53.3,16.6
		c-9.1,0-15.6-2.8-19.4-8.3c-3.8-5.5-5.8-15.2-5.8-29.2c0-19.2,4.8-40,14.4-62.3c9.6-22.3,22.6-44.8,38.9-67.3
		c16.3-22.6,34.9-44.3,55.8-65.2c20.9-20.9,42.7-39.5,65.5-55.8c22.8-16.3,45.5-29.2,68-38.5C2711.9,1585.7,2732.7,1581,2751.9,1581
		z M2772.8,1610.5c0-15.4-6.2-23-18.7-23c-13.9,0-30.8,5.4-50.8,16.2c-19.9,10.8-40.9,25.3-63,43.6c-22.1,18.2-43.9,38.6-65.5,61.2
		c-21.6,22.6-41.3,45.5-59,68.8c-17.8,23.3-31.9,45.6-42.5,67c-10.6,21.4-16.1,39.7-16.6,55.1c0,6.2,1.2,10.7,3.6,13.3
		c2.4,2.6,6.7,4,13,4c13.9,0,30.8-5.5,50.8-16.6c19.9-11,41.2-25.7,63.7-43.9c22.6-18.2,44.8-38.5,66.6-60.8
		c21.8-22.3,41.6-45,59.4-68c17.8-23,32-44.8,42.8-65.2C2767.4,1641.6,2772.8,1624.5,2772.8,1610.5z"/>
	<path d="M2568.3,2008.7l-2.9-3.6c26.9-2.9,56.4-11.4,88.6-25.6c32.2-14.2,64.9-32.4,98.3-54.7c33.4-22.3,65.5-47,96.5-74.2
		c31-27.1,58.6-54.8,82.8-83.2c24.2-28.3,43.6-55.7,58-82.1c14.4-26.4,21.6-50.2,21.6-71.3c0-22.1-12.2-33.1-36.7-33.1
		c-15.4,0-32.5,4.8-51.5,14.4c-19,9.6-37.9,22.2-56.9,37.8c-19,15.6-36.4,32.8-52.2,51.5s-28.6,37.3-38.2,55.8
		c-9.6,18.5-14.4,35.2-14.4,50c0,18.7,9.4,28.1,28.1,28.1c13.4,0,28.2-4.3,44.3-13c16.1-8.6,31.7-19.9,46.8-33.8
		c15.1-13.9,28.2-29.2,39.2-45.7c11-16.6,18-32.5,20.9-47.9h5.8c-3.8,16.3-11.5,33.1-23,50.4c-11.5,17.3-25.2,33.1-41,47.5
		c-15.8,14.4-32.2,26-49,34.9c-16.8,8.9-32.4,13.3-46.8,13.3c-28.3,0-42.5-17.3-42.5-51.8c0-17.3,4.7-35.2,14-53.6
		c9.4-18.5,22-36.2,37.8-53.3c15.8-17,33.8-32.4,54-46.1c20.2-13.7,40.9-24.5,62.3-32.4c21.4-7.9,42.1-11.9,62.3-11.9
		c17.8,0,31,4.6,39.6,13.7c8.6,9.1,13,23.5,13,43.2c0,23.5-6.6,48.6-19.8,75.2c-13.2,26.6-31.4,53.4-54.7,80.3
		c-23.3,26.9-50,52.8-80.3,77.8c-30.2,25-62.5,47.5-96.8,67.7c-34.3,20.2-69.1,36.8-104.4,50
		C2635.7,1996.3,2601.5,2004.8,2568.3,2008.7z"/>
</g>
</svg>
