<?xml version="1.0" encoding="utf-8"?>
<!-- Generator: Adobe Illustrator 27.4.0, SVG Export Plug-In . SVG Version: 6.00 Build 0)  -->
<svg version="1.1" id="Layer_1" xmlns="http://www.w3.org/2000/svg" xmlns:xlink="http://www.w3.org/1999/xlink" x="0px" y="0px"
	 viewBox="0 0 2799.78 2588" style="enable-background:new 0 0 2799.78 2588;" xml:space="preserve">
<style type="text/css">
	.st0{fill-rule:evenodd;clip-rule:evenodd;}
</style>
<g transform="rotate(-20.588 523.45 1310.9)">
	<path class="st0" d="M-59.6,2171.84c-22.53,73.44,36.46,183.75,98.5,216.2c0,0,65.03,38.89,127.18,42.81c0.01,0,0.03,0,0.04,0.01
		c9.79,5.45,189.03,26.77,265.93-192.17c27.49-81.04,53.33-304.7,53.33-304.7c0.01-0.06,0.06-0.1,0.12-0.09
		c26.08,3.36,118.12-10.21,147.4-17.12c140.4-27.68,248.04-195.27,269.43-265c54.12-176.38-46.88-363.79-225.57-418.62
		c-25.71-7.89-51.62-12.55-77.34-14.32c-0.06,0-0.11-0.06-0.1-0.13l37.56-236.22c0.01-0.03,0.02-0.06,0.05-0.08
		c105.02-62.09,214.67-136.79,302.45-219.03c79.47-74.45,141.26-165.94,178.8-268.16c36.7-99.93,40.22-182.12,3.09-245.75
		c-21.1-36.16-61.38-56.64-103.06-52.63c-90.2,8.68-192.23,75.68-291.43,206.31C621,527.09,632.2,724.49,633.73,812.66
		c0,0.04-0.02,0.08-0.06,0.09C385.54,935.65,154.19,1007.42,37.6,1316.6v0.01c-75.75,246.91,72.11,490.69,315.77,586
		c36.93,14.45,109.87,28.08,109.86,28.14l-65.35,288.32c0,0-55.17,208.72-222.81,187.85c-66.51-8.29-131.32-14.12-101.22-49.95
		c0.02-0.02,0.04-0.03,0.06-0.04c56.95-10.19,126.59-32.92,146.88-99.04c25.25-82.3-17.06-168.29-94.47-192.04
		c-77.44-23.76-160.7,23.7-185.95,106L-59.6,2171.84z M611.96,997.15l-35.14,220.74c-0.01,0.05-0.05,0.09-0.11,0.09
		c-144.3-0.18-277.41,91.81-321.43,235.27c-49.8,162.3,123.52,298.35,130.19,258.38c0.01-0.04-0.01-0.08-0.04-0.11
		c-66.65-56.17-83.8-101.59-56.91-189.24c30.39-99.06,124.51-161.22,224.63-156.51c0.07,0,0.11,0.06,0.1,0.13l-83.75,525.52
		c-0.01,0.05-0.06,0.09-0.11,0.09c-12.06-0.44-24.65-1.4-37.8-2.91c-10.96-2.52-21.83-5.03-32.79-7.55
		c-255.56-89.88-334.12-268.07-259.86-510.1c42.44-138.31,256.47-247.23,473.03-373.8L611.96,997.15L611.96,997.15z M492.08,1891.69
		l83.38-523.63c0.01-0.06,0.06-0.1,0.12-0.09c11.28,1.65,22.65,4.16,33.91,7.62c119.1,36.54,186.42,161.49,150.35,279.05
		c-31.41,93.87-79.19,233.31-267.77,237.06L492.08,1891.69z M666.15,788.52c1.04-176.72,69.72-243.88,117.26-297.1
		c95.63-107,171.81-187.03,232.53-193.35c21.49-2.24,42,9.98,49.57,30.22C1091.07,396.66,761.75,735.83,666.15,788.52L666.15,788.52
		z"/>
</g>
<g>
	<path d="M1209.06,1365.17v-26.64c74.16-3.6,79.2-11.52,79.2-63.36v-260.64c0-36.72-12.96-39.6-42.48-43.2l-21.6-3.6v-23.76
		c55.44-6.48,117.36-20.88,159.84-36v367.2c0,53.28,4.32,59.76,77.76,63.36v26.64L1209.06,1365.17L1209.06,1365.17z"/>
	<path d="M1749.77,1168.61l-36,18.72c-16.56,8.64-29.52,12.24-41.76,12.24c-87.12,0-139.68-61.92-139.68-136.08
		c0-64.08,51.12-155.52,166.32-155.52c100.08,0,159.12,84.96,159.12,182.88c0,130.32-87.12,222.48-189.36,262.8
		c-27.36,10.8-74.88,20.16-105.84,22.32l-5.04-27.36C1671.29,1319.81,1730.33,1257.17,1749.77,1168.61z M1683.53,938.21
		c-38.88,0.72-55.44,34.56-55.44,95.76c0,62.64,33.84,114.48,87.12,114.48c18,0,29.52-5.04,39.6-9.36
		c2.88-18.72,3.6-36.72,3.6-51.84C1758.41,1017.41,1738.97,937.49,1683.53,938.21z"/>
	<path d="M2114.8,1168.61l-36,18.72c-16.56,8.64-29.52,12.24-41.76,12.24c-87.12,0-139.68-61.92-139.68-136.08
		c0-64.08,51.12-155.52,166.32-155.52c100.08,0,159.12,84.96,159.12,182.88c0,130.32-87.12,222.48-189.36,262.8
		c-27.36,10.8-74.88,20.16-105.84,22.32l-5.04-27.36C2036.32,1319.81,2095.36,1257.17,2114.8,1168.61z M2048.56,938.21
		c-38.88,0.72-55.44,34.56-55.44,95.76c0,62.64,33.84,114.48,87.12,114.48c18,0,29.52-5.04,39.6-9.36
		c2.88-18.72,3.6-36.72,3.6-51.84C2123.44,1017.41,2104,937.49,2048.56,938.21z"/>
	<path d="M2412.15,1088.69c17.28-8.64,36-13.68,47.52-13.68c78.48,0,134.64,53.28,134.64,135.36c0,90.72-69.84,163.44-165.6,163.44
		c-92.16,0-163.44-69.12-163.44-184.32c0-146.88,111.6-233.28,195.12-263.52c21.6-7.92,76.32-18.72,107.28-22.32l4.32,28.8
		c-20.88,5.04-51.84,13.68-77.04,25.92c-36.72,18-97.92,58.32-119.52,147.6L2412.15,1088.69z M2416.47,1126.85
		c-17.28,0-31.68,2.88-46.08,7.92c-2.88,12.24-5.04,38.88-5.04,58.32c0,95.04,31.68,149.76,78.48,149.76
		c44.64,0,55.44-56.16,55.44-101.52C2499.27,1173.65,2465.43,1126.85,2416.47,1126.85z"/>
</g>
</svg>
