<?xml version="1.0" encoding="utf-8"?>
<!-- Generator: Adobe Illustrator 27.4.0, SVG Export Plug-In . SVG Version: 6.00 Build 0)  -->
<svg version="1.1" id="Layer_1" xmlns="http://www.w3.org/2000/svg" xmlns:xlink="http://www.w3.org/1999/xlink" x="0px" y="0px"
	 viewBox="0 0 884.41 884.41" style="enable-background:new 0 0 884.41 884.41;" xml:space="preserve">
<style type="text/css">
	.st0{opacity:0.57;enable-background:new    ;}
	.st1{opacity:0.55;enable-background:new    ;}
</style>
<g>
	<path d="M309.63,374.51c0,0-23.06-11.7-25.82,23.53c0,0,0.69,23.82,24.1,22.4c0,0,7.34-0.37,8.75-24.46
		C316.66,395.98,317.9,379.31,309.63,374.51z M304.56,397.56c-0.82,5.83-2.26,9.96-4.76,9.61c-2.51-0.35-4.11-5.99-3.29-11.83
		c0.82-5.83,4.98-10.23,7.49-9.88C306.49,385.81,305.38,391.72,304.56,397.56z"/>
	<path d="M462.82,372.64c-3-24.36-20.99-12.44-20.99-12.44c-0.03-5.71,5.03-16.49,6.04-18.96c1.01-2.47,2.09-7.23-0.9-5.32
		c-3,1.9-2.32,0.82-11.98,19.32c-9.66,18.5-9.94,55.38-5.72,64.91s16.06,26.94,15.78,18.23c-0.28-8.71-3.23-25.9-3.23-25.9
		c3.33,1.5,5.66,3,10.49,0C457.14,409.48,465.82,397,462.82,372.64z M442.95,402.3c-2.66-2.3-4.35-5.67-3.13-18.47
		c0,0,2.66-10.86,6.28-5.56C449.71,383.59,445.61,404.59,442.95,402.3z"/>
	<path d="M567.3,437.33c0,0-2.77-8.86-14.41-2.77c0,0-19.12,12.74-13.03,29.92c6.1,17.18,13.03,21.61,19.67,16.34
		C566.19,475.58,572.28,456.18,567.3,437.33z M554.75,461.81c-1.38,6.58-3.97,3.07-3.97,3.07c-1.34-1.79-1.65-4.61-1.62-6.97
		c0.03-2.86,0.71-5.69,2.03-8.22c1.45-2.78,2.88-3.78,3.96-4.08c0.98-0.27,1.91,0.52,1.84,1.53
		C556.32,455.63,556.15,455.13,554.75,461.81z"/>
	<path class="st0" d="M677.2,434.66c0,0-19.34,19.61-14.56,44.52c0,0,2.19,14.37,15.81,33.47c13.62,19.11,15.13,23.36,26.42,39.47
		c0,0,0.47-7.5-16.75-50.02c-2-4.93-3.61-10-4.82-15.17C680.47,474.78,676.05,452.29,677.2,434.66z"/>
	<g>
		<path d="M777.06,285.08c-25.39-13.85-134.43-102.72-153.38-118.3c-18.4-15.13-44.76-31.94-87.7-40.02
			c-2.21-0.41-4.48-0.35-6.65,0.27c-4.89,1.38-16.55,3.56-37.59,1.48c-29.24-2.89-10.36,5.33-8.08,7.92
			c2.28,2.59,5.33,28.64,5.48,32.14c0.15,3.51-12.36-23.62-69.58-32.09c0,0,8.78-3.92,27.59-4.71c18.81-0.79,26.81-5.96,26.49-7.06
			c-0.32-1.09-25.56-8.78-67.88,1.41s-77.46,37.02-97.94,67.96c-20.49,30.93-24.1,61.87-24.1,61.87l-19.53-76.11
			c0,0,14.01-4.17,24.22-7.19c10.22-3.03,22.25-11.82,13.93-15.42c-8.33-3.59-11.17-9.28-48.63,7c-0.24,0.11-0.51,0.22-0.75,0.33
			c-2.56-4.59-7.01-12.04-8.75-11.74c-2.51,0.41-2.3,3.12,0,7.61c0.99,1.93,1.94,4.49,2.71,6.8
			c-38.37,17.15-100.18,48.76-133.74,84.64c0,0,13.87-35.9,11.42-40.25c-2.44-4.35-28.23,42.25-33.45,62
			c0,0-29.37,34.54-28.29,42.97c0,0,0.38,3.35,3.89-1.16c3.51-4.51,14.93-19.24,19.17-22.05c0,0-13.98,45.23-3.29,53.86
			c0,0,3.6,7.64,8.43-26.93c0,0,65.62,4.52,64.29,95.68c0,0,3.64,63.65-52.39,92.82c0,0-9.24-12.36-11.93-21.09
			c-2.69-8.73-9.63-0.45,4.25,23.29c0,0-5.82,3.8,0.22,9.18s6.05,6.49,9.18,6.05c3.13-0.45,59.95,94.14,96.99,89.46
			c0,0-2.48,5.67,4.28,9.33c0,0,1.26,1.13,2.68-1.13c0,0,44.02,38.12,82.7,46.14c0,0,26.28,6.61,47.53,3.79c0,0,2.95-1.55-15.2-6.2
			l-0.84-36.17c0,0,29.34,57.79,62.88,81.14s39.97,5.88,39.97,5.88s9.03-11.58-3.36-17.49c-12.4-5.91-35.14,0.84-82.65-68.25
			c0,0-28.48-49.99-29.89-81.08c0,0,26.46,93.2,72.06,118.67c45.6,25.46,67.81,5.33,79.95-4.44c12.15-9.78,39.98-43.23,41.45-49.16
			c1.48-5.93-2.67,37.9-38.49,70.77c0,0-3.56,3.79,1.96,3.43s38.46-20.8,50.78-54.45c12.33-33.65,15.42-70.64,15.42-70.64
			s6.42,31.86,1.8,61.91c-4.65,30.22-8.05,30.93-6.86,39.47l0,0c-2.38,0.39-4.79,0.75-7.19,1.05c-10.73,1.34-4.79,3.56,7.76,3.19
			c1.07,7.82,2.66,16.49,6.85,14.06c3.24-1.88,8.18,1.2,11.31-16.1c1.75-0.34,3.53-0.71,5.33-1.15
			c25.36-6.11,90.22-19.35,126.62-39.1c36.41-19.75,62.65-33.87,58.42-48.26c0,0-5.58-2.93-7.28,4.1
			c-1.7,7.03-52.88,48.26-130.74,69.12c0,0,116.18-51.91,128.79-84.4c0,0,8.73-17.95-3.63-5.82c0,0,2.56-13.33-15.06-49.35
			c-17.62-36.02-24.28-82.46-22.69-89.4c0,0,17.88-21.08,43.24-10.4c25.35,10.68,21.08,18.15,24.02,29.36
			c2.93,11.21,7.47,10.95,9.07,6.67c1.6-4.27,4.54-11.74,0.27-24.56c0,0,38.96-44,53.86-52.63
			C831.7,364.98,802.46,298.93,777.06,285.08z M191.19,212.21c0,0,1.23,30.36,8.31,51.84c7.09,21.48,11.3,52.7,11.3,52.7l-3.98,4.21
			c0,0-3.32-10.03-15.5-37.27c-1.42-3.19-6.13-12.69-8.02-15.62c-5.09-7.88-13.29-29.67-21.76-38.14
			C161.51,229.93,175.02,219.08,191.19,212.21z M203.45,596.96c-10.22,7.85-21.26,0-21.26,0c24.94-39.19,41.29-154.29,41.29-154.29
			C229.53,492.33,203.45,596.96,203.45,596.96z M688.11,502.1c17.21,42.52,16.75,50.02,16.75,50.02
			c-11.29-16.11-12.79-20.36-26.42-39.47s-15.81-33.47-15.81-33.47c-4.77-24.93,14.56-44.52,14.56-44.52
			c-1.15,17.64,3.27,40.12,6.1,52.27C684.5,492.1,686.12,497.17,688.11,502.1z M761.13,420.73c0,0-13.74-25.48-47.54-22.12
			c0,0-15.2,2.19-27.29,14.28c0,0-0.88-19.53,4.01-33.65c0,0,34.83-29.47,118.14-10.95C808.45,368.28,774.36,396.72,761.13,420.73z
			 M695.2,365.11c0,0-34.25,23.45-11.39,16.8c0,0-4.15,14.13-5.81,36.57c0,0-31.23,28.97-26.11,64.79
			c5.11,35.81,44.44,74.2,44.75,103.93c0,0-94.73,66.56-142.41,74.3c0,0-2.59,0.71-6.71,1.7c1.18-9.62,1.94-23.66,2-44.3
			c0,0-9.24-108.94-13.22-115.7c0,0-7.96-6.96-11.15-2.19s-16.72,82.38-34.82,109.84s-63.98,70.51-110.19,23.75
			c-46.21-46.76-68.55-92.88-80.87-153.83c0,0-3.03-16.98-5.94-12.35c-2.91,4.63,4.64,74.76,6.18,103.33s9.21,61.13,11.06,90.93
			c0,0-64.65-12.92-98.4-45.36c0,0,27.68-79.33,17.71-163.76c0,0-0.91-21.82-5.33-18.74s-4.49,1.82-5.92,9.15
			c-1.42,7.34-30.82,119.9-52.48,140.76c0,0-48.63-52.35-51.53-60.55c0,0,56.17-25.19,55.68-105.63
			c-0.48-78.99-36.95-97.59-76.74-108.26l11.27-35.33c0,0,28.36-29.28,49.54-41.46c0,0,18.94,33.63,27.07,61.2
			c8.13,27.56,19.15,47.58,22.05,46.71c2.9-0.87,8.42-14.8,12.48-17.41c4.06-2.61-4.64-39.75-9.29-62.96s-7.15-53.59-7.15-53.59
			s15.88-9.14,57.49-25.01c0,0,13.58,60.63,21.28,113.09s14.2,41.15,14.2,41.15s4.09-1.45,2.89-33.69s20.69-110.79,83.13-148.4
			c0,0,18.65-10.54,27.67-13.8c9.02-3.26,80.08,1.57,116.38,109.15c0,0,23.73,65.27,21.13,147.39c0,0,6.04,22.96,17.74-23.25
			c11.7-46.21,32.76-76.04,13.45-129.27c-19.3-53.23-61.22-92.36-85.98-108.22c0,0-5.06-1.43,5.71,0
			c13.97,1.87,21.48,0.26,27.25,0.61c5.42,0.34,57.8-2.06,122.4,58.31c64.6,60.37,67.62,53.13,102.03,81.5s47.1,33.81,62.19,85.13
			C808.45,362.1,744.99,340,695.2,365.11z M490.67,142.54c36.29,33.81,60.05,87.48,71.59,121.62c11.54,34.14-3.55,67.26-3.55,67.26
			c-9.68-111.12-61.45-155.89-61.45-155.89C496.04,157.39,490.67,142.54,490.67,142.54z"/>
		<g>
			<path class="st1" d="M182.19,596.96c0,0,11.04,7.85,21.26,0c0,0,26.07-104.63,20.03-154.29
				C223.49,442.67,207.13,557.77,182.19,596.96z"/>
			<path class="st1" d="M195.79,201.26c-18.67,8.03-43.6,27.18-43.6,27.18c9.79,9.91,22.19,28.65,28.07,37.87
				c2.19,3.43,7.63,14.55,9.28,18.29c14.08,31.88,17.91,43.62,17.91,43.62l4.6-4.92c0,0-4.86-36.54-13.05-61.69
				C190.83,236.47,195.79,201.26,195.79,201.26z"/>
			<path class="st0" d="M490.67,142.54c0,0,5.37,14.84,6.6,32.99c0,0,51.77,44.77,61.45,155.89c0,0,15.09-33.12,3.55-67.26
				C550.73,230.01,526.97,176.36,490.67,142.54z"/>
			<path class="st0" d="M690.31,379.24c0,0,34.83-29.47,118.14-10.95c0,0-34.08,28.43-47.32,52.45c0,0-13.74-25.48-47.54-22.12
				c0,0-15.2,2.19-27.29,14.28C686.3,412.89,685.42,393.36,690.31,379.24z"/>
		</g>
	</g>
	<path d="M191.1,213.29c0,0-15.28,7.32-23.9,25.09c0,0-1.53,11.54,5.75,0.7c7.28-10.83,7.29-11.29,17.35-20.13
		C200.37,210.1,191.1,213.29,191.1,213.29z"/>
	<path d="M196.22,228.78c0,0-15.28,7.32-23.9,25.09c0,0-1.53,11.54,5.75,0.7c7.28-10.83,7.29-11.29,17.35-20.13
		C205.5,225.59,196.22,228.78,196.22,228.78z"/>
	<path d="M198.64,245.71c0,0-13.1,6.54-20.38,22.61c0,0-1.23,10.47,4.95,0.68c6.18-9.79,6.2-10.2,14.79-18.16
		C206.6,242.88,198.64,245.71,198.64,245.71z"/>
	<path d="M201.51,261.73c0,0-13.1,6.54-20.38,22.61c0,0-1.23,10.47,4.95,0.68s6.2-10.2,14.79-18.16
		C209.47,258.91,201.51,261.73,201.51,261.73z"/>
	<path d="M205.12,276.21c0,0-10.67,7.35-15.05,22.28c0,0,0.22,9.27,4.42-0.04c4.2-9.31,4.15-9.67,10.7-17.69
		C211.74,272.73,205.12,276.21,205.12,276.21z"/>
	<path d="M202.36,524.45c0,0,11.9,0.41,23.29-10.32c0,0,4.9-8.65-3.29-2.93c-8.19,5.72-8.35,6.07-17.58,9.03
		C195.57,523.18,202.36,524.45,202.36,524.45z"/>
	<path d="M204.1,508.96c0,0,11.9,0.41,23.29-10.32c0,0,4.9-8.65-3.29-2.93s-8.35,6.07-17.58,9.03
		C197.31,507.7,204.1,508.96,204.1,508.96z"/>
	<path d="M209.42,494.49c0,0,10.47-1.46,19.34-12.54c0,0,3.4-8.28-3.19-2.05c-6.59,6.23-6.68,6.56-14.46,10.55
		C203.34,494.44,209.42,494.49,209.42,494.49z"/>
	<path d="M213.6,476.41c0,0,8.65-1.06,15.9-9.72c0,0,2.74-6.49-2.66-1.65c-5.4,4.85-5.47,5.11-11.87,8.19
		C208.58,476.3,213.6,476.41,213.6,476.41z"/>
	<path d="M224.95,548.76c0,0-10.67,7.35-15.05,22.28c0,0,0.22,9.27,4.42-0.04c4.2-9.31,4.15-9.67,10.7-17.69
		C231.57,545.29,224.95,548.76,224.95,548.76z"/>
	<path d="M506.05,151.82c0,0,3.01,19.33-3.34,37.81s5.4,5.81,7.35-9.95c1.96-15.76,4.01-20.47,0-24.16L506.05,151.82z"/>
	<path d="M520.14,169.06c0,0,1.06,17.04-7.58,32.12c-8.64,15.08,5.03,5.71,8.77-7.61c3.75-13.31,6.41-17.1,2.6-20.81L520.14,169.06z
		"/>
	<path d="M533.19,187.83c0,0-2.71,16.85-14.45,29.67c-11.74,12.82,3.64,6.67,10.22-5.49c6.58-12.17,10.01-15.27,7.11-19.72
		L533.19,187.83z"/>
	<path d="M540.87,204.56c0,0-2.71,16.85-14.45,29.67c-11.74,12.82,3.64,6.67,10.22-5.49c6.58-12.17,10.01-15.27,7.11-19.72
		L540.87,204.56z"/>
	<path d="M554.76,212.73c0,0-3.56,18.65-16.49,32.4s3.57,7.59,11.03-5.66c7.46-13.25,11.2-16.57,8.33-21.65L554.76,212.73z"/>
	<path d="M562.97,236.68c0,0-7.35,17.36-22.85,27.79c-15.48,10.41,1.9,8.22,11.94-2.98c10.04-11.2,14.39-13.57,12.65-19.19
		L562.97,236.68z"/>
	<path d="M570.43,249.32c0,0-7.35,17.36-22.85,27.79c-15.48,10.41,1.9,8.22,11.94-2.98c10.04-11.2,14.39-13.57,12.65-19.19
		L570.43,249.32z"/>
	<path d="M739.16,362.1c0,0-11.76,10.58-12.36,35.98c-0.58,25.4-8.72-4.26-4.23-20.19c4.49-15.93,4.14-23.12,10.36-19.46
		L739.16,362.1z"/>
	<path d="M766.88,360.8c0,0-14.46,9.21-19.3,35.9c-4.83,26.68-8.72-5.94-1.22-22c7.49-16.06,8.3-23.7,14.42-18.8L766.88,360.8z"/>
	<path d="M715.77,364.69c0,0-10.54,11.6-7.79,35.02c2.75,23.42-9.41-2.51-6.95-17.86c2.47-15.34,1.16-21.9,7.95-19.53L715.77,364.69
		z"/>
</g>
</svg>
