<?xml version="1.0" encoding="utf-8"?>
<!-- Generator: Adobe Illustrator 27.4.0, SVG Export Plug-In . SVG Version: 6.00 Build 0)  -->
<svg version="1.1" id="Layer_1" xmlns="http://www.w3.org/2000/svg" xmlns:xlink="http://www.w3.org/1999/xlink" x="0px" y="0px"
	 viewBox="0 0 884.41 884.41" style="enable-background:new 0 0 884.41 884.41;" xml:space="preserve">
<style type="text/css">
	.st0{fill:#EBFF79;stroke:#6EA035;stroke-width:1.1141;stroke-miterlimit:10;}
	.st1{fill:#EBFF79;stroke:#6EA035;stroke-width:1.0437;stroke-miterlimit:10;}
</style>
<path class="st0" d="M135.61,400.83c30.85-26.27,2.95-42.79,2.95-42.79s-39.34,10.43-26.26-13s40.76-16.73,43.51-16.42
	c2.74,0.31,25.86,11.25,19.16,45.32s10.94,14.93-2.75,58.12c-13.69,43.19-5.17,68.14-10.34,80.3s-22.82,55.36-45.32,24.03
	c0,0-6.7-7.61,3.96-35.9s-9.43-41.68-27.37-29.51s-22.82,23.42-24.33,38.32c-1.53,14.91-12.17,30.41,24.33,55.06
	c0,0,66.96,18.62,76.08-19.71c0,0,11.94-24.23,8.9-52.45c0,0-10.46-36.13,12.66-15.14s16.12,47.76,21.9,56.58
	c5.78,8.82,11.87,29.81,73.31,33.16c0,0,57.5-0.3,44.41-39.85s-61.75-3.95-62.67-3.65c-0.91,0.3-29.51,17.34-41.98-7.3
	c-12.47-24.64-2.74-59.31-34.07-57.19c0,0-7.09-5.54,3.81-12.2c10.91-6.66,23.5-5.25,29.45-7.17c5.02-1.62,43.72-18.13,54.71-24.28
	c3.04-1.7,56.16-23.47,52.69-82.87c0,0,3-32.85-33.91-42.57c0,0-47.04,6.05-45.49,31.47c1.55,25.42,4.56,25,21.94,40.56
	c17.38,15.56,7.52,34.76-9.6,40.47s-22.57,22.83-73.16,32.16c0,0-4.92,2.9,0.07-12.08c4.99-14.98,17.45-44.9,11.19-77.18
	c-6.26-32.29-8.43-55.98-45.8-63.77c-37.37-7.79-75.68,54.5-72.87,76.6c2.81,22.1-4.67,37.99,29.59,46.71
	C114.3,404.71,127.03,408.14,135.61,400.83z"/>
<path class="st1" d="M452.47,442.54c0,0,22.81-11.54,1.38-30.94c-2.35-2.13-5.48-1-7.27-5.44c-8.78-21.68-43.35-5.7-45.94-3.73
	c-2.92,2.22-6.42,3.44,6.05,16.57C418.68,431.63,428.39,452.46,452.47,442.54z"/>
<g>
	<path class="st0" d="M467.91,452.19c-11.72,3.55-4.13,4.6-5.53,8.17c-1.38,3.55-10.35,24.57-14.65,21.28
		c0,0,1.55-36.56-56.63-22.33c0,0-30.55,5.65-40.17,47.5s-21.13,44.99,26.58,57.97c0,0,28.04-6.28,36.21-15.27
		c8.17-9,28.88-18.84,18.42,2.93c-10.46,21.76,24.9,11.1,24.9,11.1s15.06-6.28,4.19-16.95c-10.88-10.67-10.88-24.69-4.19-33.69
		c6.7-9,16.95-50.43,16.95-50.43S479.63,448.63,467.91,452.19z M410.82,538.98c-15.15,12.09-27.58,1.7-29.46-1.7
		c-1.87-3.41-5.61-34.9,18.56-54.14c24.18-19.24,32.69,6.47,32.69,6.47C437.38,504.92,425.97,526.89,410.82,538.98z"/>
	<path class="st0" d="M664.8,540.61c-7.25-12.95-34.44,1.29-40.39,0c-5.96-1.29-12.42-26.93-13.98-36.25
		c-1.55-9.32-8.8-4.66-10.62-15.27s-7.51-10.09-16.05-14.76c-8.55-4.66-5.44-13.87-26.25-8.92c-13.79,3.28-17.81-3.39-17.81-3.39
		c-4.46-18.45,23.17-15.12,23.17-15.12c46.89-6.13,71.81-29.98,71.81-29.98c55.1-88.84-18.71-113.21-47.43-115.22
		s-93.51-4.68-138.59,25.38S426.3,379.5,426.3,379.5c29.39,17.03,39.41-9.35,39.41-9.35c8.34-34.4,39.41-34.4,39.41-34.4
		c48.1-9.68,28.05,34.4,28.05,34.4c-3.93,4.86-14.69,40.65-21.09,57.69c-6.38,17.03-3.2,31.94-14.91,60.95
		c-11.71,29.01-12.1,42.99-12.1,42.99s-1.15,13.44,13.24,11.13c14.39-2.31,7.49,4.22-1.54,10.94s-1.35,9.59,4.8,8.05
		c6.14-1.54,20.34-1.15,20.34-1.15c14,3.64,16.31,0,16.31,0c12.09-18.62,3.64-20.72-8.63-23.22c-12.28-2.5-9.98-16.79-9.98-16.79
		c-0.38-50.37,15.2-44.76,15.2-44.76c23.56-1.18,41.17,28.36,44.53,40.02c3.36,11.65-1.29,15.8,8.02,28.68
		c9.32,12.88,48.16,21.03,59.8,17.67C658.84,558.99,672.04,553.54,664.8,540.61z M542.21,421.92c4.13-7.97,11.21-38.95,15.05-58.42
		c3.83-19.47,16.52-10.92,16.52-10.92s10.92,2.06,28.91,9.44c17.99,7.38,13.87,31.43,13.87,31.43c0,34.68-51.93,41.44-62.85,42.62
		C542.8,437.26,538.07,429.89,542.21,421.92z"/>
</g>
<path class="st0" d="M810.9,542.05c-9.9-5.53-9.26-7.8-10.39-10.39c-1.14-2.6,2.12-39.15,3.9-58.48
	c1.78-19.33-5.04-24.21-17.87-23.87c-12.83,0.32-6.66,9.58-6.66,9.58c10.56,2.44,9.43,8.61,9.43,8.61
	c0.17,17.87-12.51,2.92-12.51,2.92c-5.35-17.74-5.75-16.87-15.15-15.91s-9.06,0.13-9.06,0.13c-5.4-4.98-23.36,0-23.36,0
	c-33.09,6.27-36.55,36.99-36.34,38.71c0.21,1.73-6.41,18.57-13.98,30.68c-7.58,12.11-1.29,23.14-1.29,23.14
	c10.38,28.12,59.07,5.92,67.19,4.29c8.12-1.63,2.12-11.7,17.38-18.52c15.27-6.82,15.43,3.09,12.99,11.7
	c-2.44,8.61-4.39,16.73,0,18.84c4.39,2.12,23.87,1.78,34.76-3.09C820.8,555.53,820.8,547.58,810.9,542.05z M729.48,544.61
	c0,0-22.69,5.15-16.84-29.31s7.93-31.47,29.38-44.14c21.45-12.67,16.84,7.13,16.84,7.13s-4.96,2.8-1.54,4.56
	c3.42,1.76,3.49,13.45,3.49,13.45C759.84,528.46,729.48,544.61,729.48,544.61z"/>
<path class="st0" d="M291.07,458.21c0,0,8.4-18.52-15.12-10.31c-23.52,8.21-24.98,4.87-37.48,37.51s10.76,32.05,10.76,32.05
	s32.93-9.87,40.21-41.22c0,0,2.23-11.48-0.78-13.87C285.66,459.98,291.07,458.21,291.07,458.21z"/>
</svg>
