<?xml version="1.0" encoding="utf-8"?>
<!-- Generator: Adobe Illustrator 27.4.0, SVG Export Plug-In . SVG Version: 6.00 Build 0)  -->
<svg version="1.1" id="Layer_1" xmlns="http://www.w3.org/2000/svg" xmlns:xlink="http://www.w3.org/1999/xlink" x="0px" y="0px"
	 viewBox="0 0 884.41 884.41" style="enable-background:new 0 0 884.41 884.41;" xml:space="preserve">
<style type="text/css">
	.st0{fill:none;}
</style>
<g>
	<path d="M213.89,409.62c43.55,0,78.85-32.47,78.85-72.52s-35.3-72.52-78.85-72.52c-26.07,0-49.17,11.64-63.52,29.57
		c-2.17-7.06-11.04-29.17-37.26-29.56c-27.97-0.41-27.16,24.1-27.16,24.1s-0.99,22.05,21.88,21.71c5.13-0.69,9.85-2.96,9.33-8.39
		c-0.59-6.22-5.03-7.46-8.01-8.2c-2.16-0.54-3.2-1.62-3.69-2.11c-0.12-0.11-0.22-0.23-0.32-0.35c-1.32-1.59-1.24-3.9-0.07-5.6
		c1.25-1.81,3.98-3.67,9.91-2.52c10.29,2,19.85,10.16,20,28.38c0.03,3.64,0.05,6.67,0.06,9.2v186.56c0,5,4.06,9.06,9.06,9.06
		s9.06-4.06,9.06-9.06V383.35C167.63,399.4,189.46,409.62,213.89,409.62z M213.89,284.35c31.68,0,57.35,23.62,57.35,52.75
		s-25.68,52.75-57.35,52.75c-31.68,0-57.35-23.62-57.35-52.75S182.22,284.35,213.89,284.35z"/>
	<path d="M329.39,489.62c0,0-6.15-20.3-26.63-15.51c-4.79,1.96-7.78,5.47-6.93,10.47c1.05,6.16,6.74,5.95,9.82,5.92
		c2.23-0.02,3.5,0.77,4.11,1.11c0.14,0.08,0.28,0.17,0.4,0.26c1.68,1.21,2.19,3.46,1.48,5.4c-0.76,2.07-2.92,4.93-8.96,4.93
		c-8.73,0-15.23-3.1-15.23-18.14v-54.91c0-5-4.06-9.06-9.06-9.06s-9.06,4.06-9.06,9.06v15.41c-10.1-8.79-24.41-14.29-40.31-14.29
		c-30.57,0-55.35,20.31-55.35,45.36c0,25.05,24.78,45.36,55.35,45.36c17.34,0,32.81-6.54,42.96-16.76
		c4.58,7.89,15.62,20.8,37.19,15.54C336.35,513.15,329.39,489.62,329.39,489.62z M229.01,504.78c-19.64,0-35.56-13.05-35.56-29.14
		c0-16.09,15.92-29.14,35.56-29.14s35.56,13.05,35.56,29.14S248.65,504.78,229.01,504.78z"/>
</g>
<path d="M420.68,409.62c43.55,0,78.85-32.47,78.85-72.52s-35.3-72.52-78.85-72.52c-26.07,0-49.17,11.64-63.52,29.57
	c-2.17-7.06-11.04-29.17-37.26-29.56c-27.97-0.41-27.16,24.1-27.16,24.1s-0.99,22.05,21.88,21.71c5.13-0.69,9.85-2.96,9.33-8.39
	c-0.59-6.22-5.03-7.46-8.01-8.2c-2.16-0.54-3.2-1.62-3.69-2.11c-0.12-0.11-0.22-0.23-0.32-0.35c-1.32-1.59-1.24-3.9-0.07-5.6
	c1.25-1.81,3.98-3.67,9.91-2.52c10.29,2,19.85,10.16,20,28.38c0.03,3.64,0.05,6.67,0.06,9.2v186.56c0,5,4.06,9.06,9.06,9.06
	s9.06-4.06,9.06-9.06V383.35C374.42,399.4,396.25,409.62,420.68,409.62z M420.68,284.35c31.68,0,57.35,23.62,57.35,52.75
	s-25.68,52.75-57.35,52.75c-31.68,0-57.35-23.62-57.35-52.75S389.01,284.35,420.68,284.35z"/>
<path d="M536.18,489.62c0,0-6.15-20.3-26.63-15.51c-4.79,1.96-7.78,5.47-6.93,10.47c1.05,6.16,6.74,5.95,9.82,5.92
	c2.23-0.02,3.5,0.77,4.11,1.11c0.14,0.08,0.28,0.17,0.4,0.26c1.68,1.21,2.19,3.46,1.48,5.4c-0.76,2.07-2.92,4.93-8.96,4.93
	c-8.73,0-15.23-3.1-15.23-18.14v-54.91c0-5-4.06-9.06-9.06-9.06s-9.06,4.06-9.06,9.06v15.41c-10.1-8.79-24.41-14.29-40.31-14.29
	c-30.57,0-55.35,20.31-55.35,45.36c0,25.05,24.78,45.36,55.35,45.36c17.34,0,32.81-6.54,42.96-16.76
	c4.58,7.89,15.62,20.8,37.19,15.54C543.14,513.15,536.18,489.62,536.18,489.62z M435.8,504.78c-19.64,0-35.56-13.05-35.56-29.14
	c0-16.09,15.92-29.14,35.56-29.14s35.56,13.05,35.56,29.14S455.44,504.78,435.8,504.78z"/>
<path d="M807.11,447.46c0,0-6.15-20.3-26.63-15.51c-4.79,1.96-7.78,5.47-6.93,10.47c1.05,6.16,6.74,5.95,9.82,5.92
	c2.23-0.02,3.5,0.77,4.11,1.11c0.14,0.08,0.28,0.17,0.4,0.26c1.68,1.21,2.19,3.46,1.48,5.4c-0.76,2.07-2.92,4.93-8.96,4.93
	c-8.73,0-15.23-3.1-15.23-18.14v-54.91c0-5-4.06-9.06-9.06-9.06s-9.06,4.06-9.06,9.06v15.41c-10.1-8.79-24.41-14.29-40.31-14.29
	c-30.57,0-55.35,20.31-55.35,45.36s24.78,45.36,55.35,45.36c17.34,0,32.81-6.54,42.96-16.76c4.58,7.89,15.62,20.8,37.19,15.54
	C814.06,470.99,807.11,447.46,807.11,447.46z M706.73,462.62c-19.64,0-35.56-13.05-35.56-29.14s15.92-29.14,35.56-29.14
	s35.56,13.05,35.56,29.14S726.37,462.62,706.73,462.62z"/>
<path d="M629.39,489.93h-0.13c-4.99,0-9.04-4.05-9.04-9.04V293.38c0-4.99,4.05-9.04,9.04-9.04h0.13c4.99,0,9.04,4.05,9.04,9.04
	V480.9C638.43,485.89,634.38,489.93,629.39,489.93z"/>
<path d="M523.09,359.4h-0.04c-5.38,0-9.75-4.36-9.75-9.75v-55.56c0-5.38,4.36-9.75,9.75-9.75h0.04c5.38,0,9.75,4.36,9.75,9.75v55.56
	C532.84,355.04,528.47,359.4,523.09,359.4z"/>
<path d="M620.23,478.5c0,0,0.62,25.8-18.86,27.01c-6.77,0.42-11.45-0.85-14.67-2.64c-5.83-3.24-8.57-10.4-6.25-16.65
	c0.61-1.64,1.62-3.17,3.27-4.19c5.35-3.32,4.03-13.48-4.37-14.78c-9.08-1.41-17.25,5.26-18.13,20.16s3.67,32.43,29.53,35.76
	c25.86,3.33,48.23-9.8,47.65-44.33"/>
<path class="st0" d="M575.28,391.16h2.5c23.35,0,42.45-19.1,42.45-42.45l0,0h-87.4l0,0C532.84,372.06,551.94,391.16,575.28,391.16z"
	/>
<path d="M620.23,348.71c0,23.35-19.1,42.45-42.45,42.45h-2.5c-23.35,0-42.45-19.1-42.45-42.45l0,0l0,0H513.3c0,0.02,0,0.04,0,0.05
	l0,0c0,33.36,27.3,60.66,60.66,60.66h3.58c33.36,0,60.66-27.3,60.66-60.66l0,0c0-0.02,0-0.04,0-0.05H620.23L620.23,348.71z"/>
</svg>
