<?xml version="1.0" encoding="utf-8"?>
<!-- Generator: Adobe Illustrator 27.4.0, SVG Export Plug-In . SVG Version: 6.00 Build 0)  -->
<svg version="1.1" id="Layer_1" xmlns="http://www.w3.org/2000/svg" xmlns:xlink="http://www.w3.org/1999/xlink" x="0px" y="0px"
	 viewBox="0 0 884.41 884.41" style="enable-background:new 0 0 884.41 884.41;" xml:space="preserve">
<style type="text/css">
	.st0{fill:#FFFFFF;stroke:#000000;stroke-miterlimit:10;}
</style>
<g>
	<path d="M340.03,519.73h-1.96c-7.06,0-12.84-5.78-12.84-12.84V320.16c0-7.06,5.78-12.84,12.84-12.84h1.96
		c7.06,0,12.84,5.78,12.84,12.84v186.73C352.87,513.95,347.09,519.73,340.03,519.73z"/>
	<path d="M225.39,331.18c7.6,0,13.82-5.37,13.82-11.93l0,0c0-6.56-6.22-11.93-13.82-11.93h-30.52c-0.3,0-0.6,0.02-0.9,0.04
		c-0.3-0.02-0.59-0.04-0.9-0.04l0,0c-7.6,0-13.82,5.37-13.82,11.93V507.8c0,6.56,6.22,11.93,13.82,11.93l0,0
		c0.3,0,0.6-0.02,0.9-0.04c0.3,0.02,0.59,0.04,0.9,0.04h30.52c7.6,0,13.82-5.37,13.82-11.93l0,0c0-6.56-6.22-11.93-13.82-11.93
		h-12.52c-3.29,0-5.96-2.3-5.96-5.15v-154.4c0-2.84,2.67-5.15,5.96-5.15h12.52V331.18z"/>
	<path d="M625.93,519.73h-1.96c-7.06,0-12.84-5.78-12.84-12.84V320.16c0-7.06,5.78-12.84,12.84-12.84h1.96
		c7.06,0,12.84,5.78,12.84,12.84v186.73C638.78,513.95,633,519.73,625.93,519.73z"/>
	<path d="M595.43,503.79l-36.96-89.31c-1.37-3.31-1.37-6.94,0-10.25l34.88-84.29c2.41-5.81-2.59-11.93-9.74-11.93l0,0
		c-7.16-2.21-15.11,1.04-17.67,7.22l-23.73,63.14v-59.12c0-6.56-6.22-11.93-13.82-11.93l0,0c-7.6,0-13.82,5.37-13.82,11.93V507.8
		c0,6.56,6.22,11.93,13.82,11.93l0,0c7.6,0,13.82-5.37,13.82-11.93v-67.43l27.18,71.44c2.56,6.18,10.51,9.43,17.67,7.22l0,0
		C594.22,516.83,597.99,509.97,595.43,503.79z"/>
	<path d="M403.94,519.73h-1.96c-7.06,0-12.84-5.78-12.84-12.84V320.16c0-7.06,5.78-12.84,12.84-12.84h1.96
		c7.06,0,12.84,5.78,12.84,12.84v186.73C416.78,513.95,411,519.73,403.94,519.73z"/>
	<path d="M235.34,403.98L235.34,403.98c-3.31,0-6-2.69-6-6v-7.43c0-2.33-1.9-4.23-4.23-4.23h-0.59c-2.33,0-4.23,1.9-4.23,4.23v7.43
		c0,3.31-2.69,6-6,6l0,0c-2.38,0-4.52,1.72-4.75,4.09c-0.25,2.68,1.87,4.96,4.5,4.96h0.24c3.31,0,6,2.69,6,6v7.43
		c0,2.33,1.9,4.23,4.23,4.23h0.59c2.33,0,4.23-1.9,4.23-4.23v-7.43c0-3.31,2.69-6,6-6h0.24c2.63,0,4.76-2.28,4.5-4.96
		C239.86,405.7,237.71,403.98,235.34,403.98z"/>
	<path d="M120.46,403.65L120.46,403.65c-3.31,0-6-2.69-6-6v-7.43c0-2.33-1.9-4.23-4.23-4.23h-0.59c-2.33,0-4.23,1.9-4.23,4.23v7.43
		c0,3.31-2.69,6-6,6l0,0c-2.38,0-4.52,1.72-4.75,4.09c-0.25,2.68,1.87,4.96,4.5,4.96h0.24c3.31,0,6,2.69,6,6v7.43
		c0,2.33,1.9,4.23,4.23,4.23h0.59c2.33,0,4.23-1.9,4.23-4.23v-7.43c0-3.31,2.69-6,6-6h0.24c2.63,0,4.76-2.28,4.5-4.96
		C124.98,405.37,122.84,403.65,120.46,403.65z"/>
	<path d="M381.52,403.65L381.52,403.65c-3.31,0-6-2.69-6-6v-7.43c0-2.33-1.9-4.23-4.23-4.23h-0.59c-2.33,0-4.23,1.9-4.23,4.23v7.43
		c0,3.31-2.69,6-6,6l0,0c-2.38,0-4.52,1.72-4.75,4.09c-0.25,2.68,1.87,4.96,4.5,4.96h0.24c3.31,0,6,2.69,6,6v7.43
		c0,2.33,1.9,4.23,4.23,4.23h0.59c2.33,0,4.23-1.9,4.23-4.23v-7.43c0-3.31,2.69-6,6-6h0.24c2.63,0,4.76-2.28,4.5-4.96
		C386.05,405.37,383.9,403.65,381.52,403.65z"/>
	<path class="st0" d="M549.16,403.65L549.16,403.65c-3.31,0-6-2.69-6-6v-7.43c0-2.33-1.9-4.23-4.23-4.23h-0.59
		c-2.33,0-4.23,1.9-4.23,4.23v7.43c0,3.31-2.69,6-6,6l0,0c-2.38,0-4.52,1.72-4.75,4.09c-0.25,2.68,1.87,4.96,4.5,4.96h0.24
		c3.31,0,6,2.69,6,6v7.43c0,2.33,1.9,4.23,4.23,4.23h0.59c2.33,0,4.23-1.9,4.23-4.23v-7.43c0-3.31,2.69-6,6-6h0.24
		c2.63,0,4.76-2.28,4.5-4.96C553.68,405.37,551.54,403.65,549.16,403.65z"/>
	<path d="M706.63,331.18c7.6,0,13.82-5.37,13.82-11.93l0,0c0-6.56-6.22-11.93-13.82-11.93h-30.52c-0.3,0-0.6,0.02-0.9,0.04
		c-0.3-0.02-0.59-0.04-0.9-0.04l0,0c-7.6,0-13.82,5.37-13.82,11.93V507.8c0,6.56,6.22,11.93,13.82,11.93l0,0
		c0.3,0,0.6-0.02,0.9-0.04c0.3,0.02,0.59,0.04,0.9,0.04h30.52c7.6,0,13.82-5.37,13.82-11.93l0,0c0-6.56-6.22-11.93-13.82-11.93
		h-12.52c-3.29,0-5.96-2.3-5.96-5.15v-154.4c0-2.84,2.67-5.15,5.96-5.15h12.52V331.18z"/>
	<path d="M716.58,403.98L716.58,403.98c-3.31,0-6-2.69-6-6v-7.43c0-2.33-1.9-4.23-4.23-4.23h-0.59c-2.33,0-4.23,1.9-4.23,4.23v7.43
		c0,3.31-2.69,6-6,6l0,0c-2.38,0-4.52,1.72-4.75,4.09c-0.25,2.68,1.87,4.96,4.5,4.96h0.24c3.31,0,6,2.69,6,6v7.43
		c0,2.33,1.9,4.23,4.23,4.23h0.59c2.33,0,4.23-1.9,4.23-4.23v-7.43c0-3.31,2.69-6,6-6h0.24c2.63,0,4.76-2.28,4.5-4.96
		C721.1,405.7,718.96,403.98,716.58,403.98z"/>
	<path d="M797.18,403.98L797.18,403.98c-3.31,0-6-2.69-6-6v-7.43c0-2.33-1.9-4.23-4.23-4.23h-0.59c-2.33,0-4.23,1.9-4.23,4.23v7.43
		c0,3.31-2.69,6-6,6l0,0c-2.38,0-4.52,1.72-4.75,4.09c-0.25,2.68,1.87,4.96,4.5,4.96h0.24c3.31,0,6,2.69,6,6v7.43
		c0,2.33,1.9,4.23,4.23,4.23h0.59c2.33,0,4.23-1.9,4.23-4.23v-7.43c0-3.31,2.69-6,6-6h0.24c2.63,0,4.76-2.28,4.5-4.96
		C801.71,405.7,799.56,403.98,797.18,403.98z"/>
	<g>
		<path d="M461.55,328.43v-16.18c0,0-0.72-7.15,4.87-9.26c1.51-0.57,3.18-0.69,4.72-0.2c2.22,0.7,5.17,2.85,5.17,9.33
			c0,10.04,3.96,15.63,12.94,16.14c3.65,0.21,13.03-2.76,13.03-16.32c0,0,0.14-12.06,0.01-14.72c-0.48-9.29-6.46-23.85-33.94-23.78
			c-36.82,0.09-34.43,33.9-34.43,33.9l-0.03,101.15c0,0.87,0.71,1.58,1.58,1.58h24.5c0.87,0,1.58-0.71,1.58-1.58V328.43z"/>
		<path d="M472.23,473.34v13.96c0,0,0.72,6.17-4.87,7.99c-1.51,0.49-3.18,0.6-4.72,0.18c-2.22-0.6-5.17-2.46-5.17-8.05
			c0-8.66-3.96-13.49-12.94-13.93c-3.65-0.18-13.03,2.38-13.03,14.08c0,0-0.14,10.41-0.01,12.71c0.48,8.01,6.46,20.58,33.94,20.52
			c36.82-0.08,34.43-29.26,34.43-29.26v-77.52c0-0.75-0.71-1.36-1.58-1.36h-24.5c-0.87,0-1.58,0.61-1.58,1.36v59.32L472.23,473.34
			L472.23,473.34z"/>
	</g>
	<path d="M761.16,328.43v-16.18c0,0-0.72-7.15,4.87-9.26c1.51-0.57,3.18-0.69,4.72-0.2c2.22,0.7,5.17,2.85,5.17,9.33
		c0,10.04,3.96,15.63,12.94,16.14c3.65,0.21,13.03-2.76,13.03-16.32c0,0,0.14-12.06,0.01-14.72c-0.48-9.29-6.46-23.85-33.94-23.78
		c-36.82,0.09-34.43,33.9-34.43,33.9l-0.03,101.15c0,0.87,0.71,1.58,1.58,1.58h24.5c0.87,0,1.58-0.71,1.58-1.58V328.43z"/>
	<path d="M771.84,473.34v13.96c0,0,0.72,6.17-4.87,7.99c-1.51,0.49-3.18,0.6-4.72,0.18c-2.22-0.6-5.17-2.46-5.17-8.05
		c0-8.66-3.96-13.49-12.94-13.93c-3.65-0.18-13.03,2.38-13.03,14.08c0,0-0.14,10.41-0.01,12.71c0.48,8.01,6.46,20.58,33.94,20.52
		c36.82-0.08,34.43-29.26,34.43-29.26v-48.28c0-0.75-0.71-1.36-1.58-1.36h-24.5c-0.87,0-1.58,0.61-1.58,1.36v30.08L771.84,473.34
		L771.84,473.34z"/>
	<g>
		<path d="M122.33,326.81v-16.18c0,0-0.72-7.15,4.87-9.26c1.51-0.57,3.18-0.69,4.72-0.2c2.22,0.7,5.17,2.85,5.17,9.33
			c0,10.04,3.96,15.63,12.94,16.14c3.65,0.21,13.03-2.76,13.03-16.32c0,0,0.14-12.06,0.01-14.72c-0.48-9.29-6.46-23.85-33.94-23.78
			c-36.82,0.09-34.43,33.9-34.43,33.9l-0.03,63.68c0,0.87,0.71,1.58,1.58,1.58h24.5c0.87,0,1.58-0.71,1.58-1.58V326.81z"/>
		<path d="M133.01,471.94v13.96c0,0,0.72,6.17-4.87,7.99c-1.51,0.49-3.18,0.6-4.72,0.18c-2.22-0.6-5.17-2.46-5.17-8.05
			c0-8.66-3.96-13.49-12.94-13.93c-3.65-0.18-13.03,2.38-13.03,14.08c0,0-0.14,10.41-0.01,12.71c0.48,8.01,6.46,20.58,33.94,20.52
			c36.82-0.08,34.43-29.26,34.43-29.26v-77.52c0-0.75-0.71-1.36-1.58-1.36h-24.5c-0.87,0-1.58,0.61-1.58,1.36v59.32H133.01z"/>
	</g>
	<path d="M302.05,473.49c-8.98,0.44-12.94,5.27-12.94,13.93c0,5.59-2.95,7.45-5.17,8.05c-1.54,0.42-3.21,0.32-4.72-0.18
		c-5.59-1.82-4.87-7.99-4.87-7.99v-13.96c0,0,0-52.79,0-57.88c0,0,0-2.55,0-2.8c0-5.09,0-57.88,0-57.88v-13.96
		c0,0-0.72-6.17,4.87-7.99c1.51-0.49,3.18-0.6,4.72-0.18c2.22,0.6,5.17,2.46,5.17,8.05c0,8.66,3.96,13.49,12.94,13.93
		c3.65,0.18,13.03-2.38,13.03-14.08c0,0,0.14-10.41,0.01-12.71c-0.48-8.01-6.46-20.58-33.94-20.52
		c-36.82,0.08-34.43,29.26-34.43,29.26v76.08v2.8v76.08c0,0-2.39,29.18,34.43,29.26c27.48,0.06,33.47-12.51,33.94-20.52
		c0.14-2.3-0.01-12.71-0.01-12.71C315.07,475.87,305.7,473.31,302.05,473.49z"/>
</g>
</svg>
