<?xml version="1.0" encoding="utf-8"?>
<!-- Generator: Adobe Illustrator 27.4.0, SVG Export Plug-In . SVG Version: 6.00 Build 0)  -->
<svg version="1.1" id="Layer_1" xmlns="http://www.w3.org/2000/svg" xmlns:xlink="http://www.w3.org/1999/xlink" x="0px" y="0px"
	 viewBox="0 0 884.4 884.4" style="enable-background:new 0 0 884.4 884.4;" xml:space="preserve">
<style type="text/css">
	.st0{stroke:#000000;stroke-miterlimit:10;}
	.st1{fill-opacity:0;}
</style>
<path class="st0" d="M276.8,772.8c-31.9,11.1-85.5,4.7-121.4-22.4c-31.4-23.7-48.3-69.2-37.6-109.8c17.5-66.2,72.3-67.9,89.8-63.8
	c10,2.4,20.9,8.3,28.3,15.5c29.2,28.4,5.3,76.3-19.9,82.9c-15.2,4-28.5,0.7-36.9-6.4c-9.1-7.7-13.3-14.7-14.7-26.6
	c-3.7-31.9,25.7-45.3,45.9-36.3c26.7,11.9,15,50.7-6.6,43.4c-8.4-2.7-11.9-11.1-12-10.5c-1.9,10.2,5.6,16.5,5.6,16.5
	c12.9,9,36.7,2.4,38.4-24.8c2.2-37-39.2-37.3-39.2-37.3c-27.6-0.2-41.2,21.2-42.4,41.2c-0.8,12.9,1.1,23,7.4,32.3
	c3.5,5.2,8.2,9.6,13.5,13.1c1,0.6,2,1.5,3.4,2.2c22.7,10.5,41.2,7.2,56.1-2.1c12.6-7.8,18.9-18.2,23.4-32.3
	c6.3-19.5,5.6-48.8-20.2-70.6c-41.8-35.3-89.2-8-89.2-8l0,0c-53.8,31.8-59.3,85.5-51,122.8c6.2,27.5,14.7,42.8,35.2,61.5
	c35.8,32.6,114.7,56.1,180.1,11.1c66-45.4,71.1-110.4,68.2-149c-4.6-61.2-22.2-104.2-129.5-196.9C128.2,312,137.8,229.1,137.8,229.1
	c-0.6-80.8,39-117.3,74.1-132.6c24.8-10.9,46.2-13.5,75.8-6.9c25.5,5.7,68,34.4,77.1,90.8c8.4,52-16.8,78.8-35.5,91.8
	c-15.3,10.6-32,10.9-50.2,9.8c-23.5-1.5-55.5-15.5-67.3-56.4c-8.1-27.9-2.2-48.5,6.7-62.8c10-16.1,26.5-26.9,45-30.9
	c58.2-12.6,79.1,25.2,79.1,25.2c-22-42.6-74.9-35.3-80.1-34.6c-4.6,0.7-59.3,8.1-69.6,68c-10.9,63.3,39.8,87.1,39.8,87.1
	c46.3,22.7,93.2,17.4,122.2-22.1c23.3-31.7,37.5-84.4,1.4-129.6S271,77.7,249.6,79.3c-57.3,4.4-87.8,27.7-112.6,64.8
	c-32.9,49.4-36.6,118.6,8.9,180.9c35.9,49.1,53.7,55.6,121.1,117.6c27.4,25.2,63.8,62.8,81.4,116.2
	C374.1,636.8,376.9,738,276.8,772.8z"/>
<path class="st1" d="M756.3,772.6c-31.9,11.1-85.5,4.7-121.4-22.4c-31.4-23.7-48.3-69.2-37.6-109.8c17.5-66.2,72.3-67.9,89.8-63.8
	c10,2.4,21,8.3,28.3,15.5c29.2,28.4,5.3,76.3-19.8,82.9c-15.2,4-28.5,0.7-36.9-6.4c-9.1-7.7-12.9-14.8-14.7-26.6
	c-4.7-32,25.7-45.3,45.9-36.3c26.7,11.9,15,50.7-6.6,43.4c-5.1-1.7-10.2-7.1-10.8-10.4c-0.1-0.6-1-0.7-1.2-0.1
	C667.6,649,677,655,677,655c12.9,9,37.4,3.6,38.4-24.8c1.3-37.1-39.2-37.3-39.2-37.3c-27.7-0.2-41.2,21.2-42.4,41.2
	c-0.8,12.9,1.2,23,7.4,32.3c3.5,5.2,8.2,9.6,13.5,13.1c1,0.6,2,1.5,3.4,2.2c22.7,10.5,41.2,7.2,56.1-2.1
	c12.6-7.8,18.9-18.2,23.4-32.3c6.3-19.5,5.6-48.8-20.2-70.6c-41.8-35.3-89.2-8-89.2-8l0,0c-53.8,31.8-59.3,85.5-51,122.8
	c6.2,27.5,14.7,42.8,35.2,61.5c35.8,32.6,114.7,56.1,180,11.1c66-45.4,71.1-110.4,68.2-149c-4.7-61.2-22.2-104.2-129.5-196.9
	C607.7,311.8,617.4,229,617.4,229c-0.6-80.8,39-117.3,74.1-132.6c24.8-10.9,46.2-13.5,75.8-6.9c25.5,5.7,68,34.4,77.1,90.8
	c8.4,52-16.8,78.8-35.5,91.8c-15.3,10.6-32,10.9-50.2,9.8c-23.5-1.5-55.5-15.5-67.3-56.4c-8.1-27.9-2.2-48.5,6.7-62.8
	c10-16.1,26.5-26.9,45-30.9c58.2-12.6,79.1,25.2,79.1,25.2c-22-42.6-74.9-35.3-80.1-34.6c-4.7,0.7-59.3,8.1-69.6,68
	c-10.9,63.3,39.8,87.1,39.8,87.1c46.3,22.7,93.2,17.4,122.2-22.1c23.3-31.7,37.5-84.4,1.3-129.6s-85.3-48.4-106.7-46.8
	c-57.3,4.4-87.8,27.7-112.6,64.8c-32.9,49.4-36.6,118.6,8.8,180.9c35.9,49.1,53.7,55.6,121.1,117.6c27.5,25.2,63.8,62.8,81.4,116.2
	C853.6,636.6,856.4,737.8,756.3,772.6z"/>
<path class="st0" d="M413.8,233.6c0,0,83.1,1.9,132.4-79.3c4.9-8.1,8.3-17,9.7-26.3c2-13.6,0-30.5-20.9-32.4
	c-9.3-0.9-18.5,1.7-26.3,6.9c-60.7,40.7-225,262-96.6,555.7C472.1,795.3,628.9,797,654,776.5c0,0-32.8,32.4-131.9,1.9
	c-117-36-170.6-179.8-181.6-308.5c-8.1-94.9,25.8-214.4,100.6-315.2c12.8-17.3,59.2-72,105.4-64.4c31.1,5.1,39.3,46,21.8,72.3
	c-10.3,15.5-29,33.6-62.7,50.6C453.2,240.4,413.8,233.6,413.8,233.6z"/>
<g>
	<path d="M465.4,344c0.1-2,0.1-4.1,0.1-6.2C465.6,337.9,465.5,340.1,465.4,344z"/>
	<path d="M402.2,448.5c-1.8-0.2-3.7-0.3-5.6-0.4C396.6,448.1,398.7,448.5,402.2,448.5z"/>
	<path d="M529.3,447.8c1.2,0.1,2.5,0.1,3.8,0.1C533.1,447.9,531.7,447.8,529.3,447.8z"/>
	<path d="M465.6,557.9c0,0,0.2-4,0.1-10.5C465.6,550.7,465.5,554.2,465.6,557.9z"/>
	<path d="M529.3,447.8c-59.9-3.3-63.9-81.1-63.8-103.8c-3.3,95.5-47.4,104.4-63.2,104.5c55.7,5.8,62.8,72.5,63.4,98.8
		C468.1,455.9,515.4,448.1,529.3,447.8z M465.3,511.3c0-2.1,0-4.1,0-6.1c-0.4-15.1-4.5-53.6-36.6-57c-2,0-3.2-0.2-3.2-0.2
		c1.1,0,2.2,0.1,3.2,0.2c9.1,0,34.6-5.2,36.5-60.2c0-2.2,0.1-3.5,0.1-3.5c0,1.2,0,2.4-0.1,3.5c-0.1,13.1,2.3,58,36.8,59.9
		c1.4,0,2.2,0.1,2.2,0.1c-0.8,0-1.5,0-2.2-0.1c-8,0.2-35.3,4.7-36.7,57.4C465.4,509,465.3,511.3,465.3,511.3z"/>
</g>
<path class="st0" d="M730.2,418.4c-118-92.5-113.7-189.2-113.7-189.2c-0.6-80.8,39-117.3,74.1-132.6c24.8-10.9,46.2-13.5,75.8-6.9
	c25.5,5.7,68,34.4,77.1,90.8c8.4,52-16.8,78.8-35.5,91.8c-15.3,10.6-32,10.9-50.2,9.8c-23.5-1.5-55.5-15.5-67.3-56.4
	c-7.1-24.5-3.4-43.4,3.6-57.3c9.6-18.9,27.6-32,48.3-36.4c58-12.4,78.8,25.3,78.8,25.3c-22-42.6-74.9-35.3-80.1-34.6
	c-4.7,0.7-59.3,8.1-69.6,68c-10.9,63.3,39.8,87.1,39.8,87.1c46.3,22.7,93.2,17.4,122.2-22.1c23.3-31.7,37.5-84.4,1.3-129.6
	s-85.3-48.4-106.7-46.8c-57.3,4.4-87.8,27.7-112.6,64.8c-32.9,49.4-34.5,117.1,8.8,180.9c29,42.6,49.1,58.9,97.3,98.6
	c31.1,25.6,61.8,53.8,84.3,87.2c19.9,29.4,34.6,65.5,34.8,94.8c0.7,138.8-94.4,165.3-113.3,168.2c-32.8,5-51.9-2.3-51.9-2.3
	c-1.7-0.5-4-1.2-6.8-2.3c0,0,0.1,0,0.1,0l2.7-1.6c5.4-2.5,85.8-41.8,65.5-150.2c0,0-7.5-46.7-46.5-75c-44.9-32.6-92-7-92-7
	c-54.1,29-55.4,87.3-47.1,124.6c6.2,27.5,33.1,67.9,60.2,85.9c28.8,19.2,93.8,56.9,160.6,18c69.3-40.3,89.2-108.3,90.5-147
	S857.5,518.2,730.2,418.4z M669.3,767.3c-0.7,0.4-1.4,0.8-2.2,1.1c-5.7-2.4-12.8-5.9-20.7-10.6c-15.4-17.8-40.7-56.9-12-91
	c6.1-7.2,14.1-12.6,23.3-14.7c4.7-1.1,10.2-1.6,16.2-0.5c22,3.7,38.4,28.9,36.5,51.1c-1.3,16-10.4,37.2-37.8,62.4
	c-0.5,0.5-1.2,1-1.8,1.4L669.3,767.3z M677,764.5c-1.5,1-3,1.9-4.5,2.7L677,764.5z M568.1,607c13.4-67.2,71.9-68.1,91.3-63.2
	c19.4,4.9,33.6,16,40.9,23.1c0,0,34.4,32.9,31.7,89.7c-1.8,37-16.5,67.5-33.3,87.8c10.9-15.2,24.8-41,18.7-67.9
	c-9.6-42.2-54.7-40-54.7-40c-18.6-0.2-30.9,9.3-38.6,18.8c-7.7,9.5-12.1,21.1-13.4,33.2c-2.9,25.5,6.2,44.1,17.4,57
	C592.9,719.1,554.9,673.1,568.1,607z"/>
<path d="M613.4,447.9l-19.1-4.1c-3.8-0.8-5.6-5.2-3.5-8.4l10.6-16.4l-16.4,10.6c-3.3,2.1-7.6,0.3-8.4-3.5l-4.2-19.1l-4.2,19.1
	c-0.8,3.8-5.2,5.6-8.4,3.5l-16.4-10.6l10.6,16.4c2.1,3.3,0.3,7.6-3.5,8.4l-19.1,4.1l19.1,4.1c3.8,0.8,5.6,5.2,3.5,8.4l-10.6,16.4
	l16.4-10.6c3.3-2.1,7.6-0.3,8.4,3.5l4.2,19.1l4.2-19.1c0.8-3.8,5.2-5.6,8.4-3.5l16.4,10.6l-10.6-16.4c-2.1-3.3-0.3-7.6,3.5-8.4
	L613.4,447.9z M588.7,464.3l-8.8-5.7c-2.1-1.3-4.8-0.2-5.3,2.2l-2.2,10.2l-2.2-10.2c-0.5-2.4-3.3-3.5-5.3-2.2l-8.8,5.7l5.7-8.8
	c1.3-2.1,0.2-4.8-2.2-5.3l-10.2-2.2l10.2-2.2c2.4-0.5,3.5-3.3,2.2-5.3l-5.7-8.8l8.8,5.7c2.1,1.3,4.8,0.2,5.3-2.2l2.2-10.2l2.2,10.2
	c0.5,2.4,3.3,3.5,5.3,2.2l8.8-5.7l-5.7,8.8c-1.3,2.1-0.2,4.8,2.2,5.3l10.2,2.2l-10.2,2.2c-2.4,0.5-3.5,3.3-2.2,5.3L588.7,464.3z"/>
</svg>
