<?xml version="1.0" encoding="utf-8"?>
<!-- Generator: Adobe Illustrator 27.4.0, SVG Export Plug-In . SVG Version: 6.00 Build 0)  -->
<svg version="1.1" id="Layer_1" xmlns="http://www.w3.org/2000/svg" xmlns:xlink="http://www.w3.org/1999/xlink" x="0px" y="0px"
	 viewBox="0 0 884.4 884.4" style="enable-background:new 0 0 884.4 884.4;" xml:space="preserve">
<style type="text/css">
	.st0{fill:none;stroke:#80F6F9;stroke-width:14;stroke-linecap:round;stroke-miterlimit:10;}
</style>
<g id="Layer_1_00000087380426977647892180000006622532012673052291_">
	<path class="st0" d="M61.2,527c0,0-1.7,27,19.4,27s23.7-9.1,29.1-27c7.6-24.9,15.2-64.5,51.9-64.5s42.2,36.7,48.1,50.2
		c5.9,13.5,6.6,44.7,41.7,44.7c0,0,20.9,0,20.9-34.5c0-36,0-123.9,0-123.9"/>
	<line class="st0" x1="318.5" y1="435.6" x2="272.3" y2="435.6"/>
	<line class="st0" x1="319.2" y1="470.7" x2="273" y2="470.7"/>
	<path class="st0" d="M61.2,492.6c0,0,26.8-246.7,359.8-260.9"/>
	<path class="st0" d="M456.1,231.8c0,0,298.3,0,341,250.9c0.3,1.9,6,37-8.1,55.7c-13.7,18.2-39.4,23.7-59.4,12.5
		c-15-8.3-26.4-18.6-25.9-61.3c1.1-72.8-3.3-87.3-17.4-87.4c-19.1-0.1-17.6,28.7-17.7,90.4c1.4,69-60,61.4-60,61.4
		s-68.3,3.3-57.9-94"/>
	<circle class="st0" cx="390.9" cy="507.6" r="47.6"/>
	<line class="st0" x1="497.8" y1="402.2" x2="497.8" y2="560.6"/>
	<path class="st0" d="M811.4,400.7c0,0-54.2-196.1-375-204.4c0,0-290.1-8.2-381.4,204.4"/>
	<path class="st0" d="M151.1,278.6c-4.9-10.3-7.7-21.9-7.7-34.1c0-43.6,35.4-79,79-79c31.4,0,58.6,18.4,71.3,45"/>
</g>
</svg>
