<?xml version="1.0" encoding="utf-8"?>
<!-- Generator: Adobe Illustrator 27.4.0, SVG Export Plug-In . SVG Version: 6.00 Build 0)  -->
<svg version="1.1" id="Layer_1" xmlns="http://www.w3.org/2000/svg" xmlns:xlink="http://www.w3.org/1999/xlink" x="0px" y="0px"
	 viewBox="0 0 884.41 884.41" style="enable-background:new 0 0 884.41 884.41;" xml:space="preserve">
<style type="text/css">
	.st0{fill:none;stroke:#6EE0FF;stroke-width:7;stroke-linecap:round;stroke-miterlimit:10;}
</style>
<g id="Layer_1_00000087380426977647892180000006622532012673052291_">
	<path class="st0" d="M61.25,526.95c0,0-1.69,27,19.4,27s23.65-9.13,29.1-27c7.59-24.89,15.18-64.54,51.88-64.54
		s42.18,36.7,48.09,50.19c5.91,13.5,6.62,44.66,41.67,44.66c0,0,20.88,0.01,20.88-34.46c0-36.01,0-123.93,0-123.93"/>
	<line class="st0" x1="318.51" y1="435.56" x2="272.27" y2="435.56"/>
	<line class="st0" x1="319.2" y1="470.73" x2="272.96" y2="470.73"/>
	<path class="st0" d="M61.22,492.62c0,0,26.85-246.74,359.84-260.87"/>
	<path class="st0" d="M456.13,231.76c0,0,298.35,0,340.98,250.86c0.32,1.87,5.98,37.01-8.07,55.75
		c-13.65,18.2-39.36,23.68-59.41,12.55c-14.97-8.31-29.14-26.87-25.94-67.88c4.11-84.17-7.75-87.71-18.78-86.43
		c-13.47,1.57-17.87,21.82-16.38,96.02c1.38,68.97-59.99,61.38-59.99,61.38s-68.26,3.27-57.92-93.97"/>
	<circle class="st0" cx="390.94" cy="507.63" r="47.61"/>
	<line class="st0" x1="497.81" y1="402.22" x2="497.81" y2="560.61"/>
	<path class="st0" d="M811.41,400.69c0,0-54.2-196.08-375.04-204.39c0,0-290.11-8.24-381.38,204.39"/>
	<path class="st0" d="M151.1,278.58c-4.94-10.31-7.7-21.86-7.7-34.06c0-43.62,35.36-78.98,78.98-78.98c31.45,0,58.61,18.39,71.32,45
		"/>
</g>
</svg>
