<?xml version="1.0" encoding="utf-8"?>
<!-- Generator: Adobe Illustrator 27.4.0, SVG Export Plug-In . SVG Version: 6.00 Build 0)  -->
<svg version="1.1" id="Layer_1" xmlns="http://www.w3.org/2000/svg" xmlns:xlink="http://www.w3.org/1999/xlink" x="0px" y="0px"
	 viewBox="0 0 884.41 884.41" style="enable-background:new 0 0 884.41 884.41;" xml:space="preserve">
<style type="text/css">
	.st0{opacity:0.22;fill:#90EE8F;stroke:#000000;stroke-width:5;stroke-miterlimit:10;enable-background:new    ;}
	.st1{fill:#90EE8F;stroke:#000000;stroke-width:5;stroke-miterlimit:10;}
	.st2{fill:none;stroke:#000000;stroke-width:5;stroke-miterlimit:10;}
</style>
<g>
	<g>
		<path class="st0" d="M118.1,237.79c0,43.38,29.04,78.55,64.87,78.55v-157.1C147.15,159.24,118.1,194.41,118.1,237.79z"/>
	</g>
	<g>
		<path class="st1" d="M531.21,288.37c43.38,0,78.55-29.04,78.55-64.87H452.67C452.67,259.33,487.83,288.37,531.21,288.37z"/>
	</g>
	<g>
		<path class="st1" d="M686.9,169.19c-27.34,0-49.51,18.31-49.51,40.89h99.02C736.41,187.49,714.24,169.19,686.9,169.19z"/>
	</g>
	<g>
		<path class="st1" d="M444.8,163.17c-34.54,0-58.87,22.71-62.55,45.42h125.1C503.81,185.87,479.34,163.17,444.8,163.17z"/>
	</g>
	<g>
		<path class="st0" d="M247.85,394.88c0,43.38-29.04,78.55-64.87,78.55v-157.1C218.81,316.33,247.85,351.5,247.85,394.88z"/>
	</g>
	<g>
		<path class="st1" d="M182.98,473.43c-35.83,0-64.87-35.17-64.87-78.55h129.75C247.85,438.26,218.81,473.43,182.98,473.43z"/>
	</g>
	<g>
		<path class="st0" d="M247.85,394.88c0,43.38,29.04,78.55,64.87,78.55v-157.1C276.9,316.33,247.85,351.5,247.85,394.88z"/>
	</g>
	<g>
		<path class="st0" d="M377.6,551.98c0,43.38-29.04,78.55-64.87,78.55v-157.1C348.55,473.43,377.6,508.59,377.6,551.98z"/>
	</g>
	<g>
		<path class="st1" d="M312.73,630.52c-35.83,0-64.87-35.17-64.87-78.55h129.75C377.6,595.36,348.55,630.52,312.73,630.52z"/>
	</g>
	<g>
		<path class="st1" d="M312.73,316.65c35.83,0,64.87,35.17,64.87,78.55H247.85C247.85,351.82,276.9,316.65,312.73,316.65z"/>
	</g>
	<g>
		<path class="st1" d="M442.48,316.65v78.54h64.87C507.35,351.81,478.3,316.65,442.48,316.65z"/>
		<path class="st2" d="M182.98,316.34v78.54h64.87C247.85,351.5,218.8,316.34,182.98,316.34z"/>
		<path class="st2" d="M312.72,473.74V395.2h-64.87C247.85,438.58,276.9,473.74,312.72,473.74z"/>
		<path class="st2" d="M182.97,316.81v-78.54H118.1C118.1,281.65,147.15,316.81,182.97,316.81z"/>
		<path class="st2" d="M442.48,316.81v-78.54h-64.87C377.6,281.65,406.65,316.81,442.48,316.81z"/>
		<path class="st2" d="M312.73,473.43v78.54h64.87C377.6,508.59,348.55,473.43,312.73,473.43z"/>
		<path class="st1" d="M442.48,473.74v0.01c35.83,0,64.87-35.17,64.87-78.55c0,0,0,0,0-0.01
			C507.35,438.58,478.3,473.73,442.48,473.74z"/>
		<path class="st1" d="M377.6,395.19c0,43.38,29.04,78.55,64.87,78.55h0.01v-78.55L377.6,395.19L377.6,395.19z"/>
		<polygon class="st1" points="507.35,395.19 507.35,395.19 507.35,395.2 		"/>
		<path class="st0" d="M507.35,395.2C507.35,395.19,507.35,395.19,507.35,395.2l-64.87-0.01v78.55
			C478.3,473.73,507.35,438.58,507.35,395.2z"/>
	</g>
	<path class="st0" d="M442.47,316.65v-78.23h-64.86C377.75,281.65,406.73,316.65,442.47,316.65z"/>
	<path class="st1" d="M378.74,223.5c-0.74,4.73-1.14,9.61-1.14,14.6c0,0.05,0,0.1,0,0.16c0.01-5.05,0.42-9.98,1.18-14.76H378.74
		L378.74,223.5z"/>
	<path class="st1" d="M377.6,238.42L377.6,238.42c0.01-0.05,0-0.1,0-0.16C377.6,238.31,377.6,238.36,377.6,238.42z"/>
	<path class="st1" d="M637.09,395.04c0-43.38-29.04-78.55-64.87-78.55s-64.87,35.17-64.87,78.55v156.78
		c0,43.38,29.04,78.55,64.87,78.55s64.87-35.17,64.87-78.55h0.3V395.04H637.09z M598.09,437.39h-0.12
		c0,17.16-11.49,31.07-25.66,31.07s-25.66-13.91-25.66-31.07v-62.02c0-17.16,11.49-31.07,25.66-31.07s25.66,13.91,25.66,31.07h0.12
		V437.39z"/>
	<g>
		<path class="st1" d="M182.98,159.55c35.83,0,64.87,35.17,64.87,78.55H118.1C118.1,194.72,147.15,159.55,182.98,159.55z"/>
	</g>
	<line class="st2" x1="378.74" y1="223.5" x2="452.67" y2="223.5"/>
	<rect x="710.95" y="223.5" class="st1" width="25.46" height="250.24"/>
	<polygon class="st2" points="697.21,458.83 659.09,458.83 659.09,473.74 710.95,473.74 710.95,458.83 	"/>
</g>
</svg>
