<?xml version="1.0" encoding="utf-8"?>
<!-- Generator: Adobe Illustrator 27.4.0, SVG Export Plug-In . SVG Version: 6.00 Build 0)  -->
<svg version="1.1" id="Layer_1" xmlns="http://www.w3.org/2000/svg" xmlns:xlink="http://www.w3.org/1999/xlink" x="0px" y="0px"
	 viewBox="0 0 884.4 884.4" style="enable-background:new 0 0 884.4 884.4;" xml:space="preserve">
<style type="text/css">
	.st0{opacity:0.22;enable-background:new    ;}
	.st1{opacity:0.22;fill:#F5FF03;stroke:#00CC9A;stroke-width:5.6635;stroke-miterlimit:10;enable-background:new    ;}
	.st2{fill:#F5FF03;stroke:#00CC9A;stroke-width:5.6635;stroke-miterlimit:10;}
	.st3{opacity:0.31;}
	.st4{fill:none;stroke:#00CC9A;stroke-width:5.6635;stroke-miterlimit:10;}
	.st5{opacity:0.31;fill:#F5FF03;stroke:#00CC9A;stroke-width:5.6635;stroke-miterlimit:10;enable-background:new    ;}
	.st6{fill:#F5FF03;stroke:#00CC9A;stroke-width:5.6269;stroke-miterlimit:10;}
	.st7{fill:none;stroke:#00CC9A;stroke-width:5.6956;stroke-miterlimit:10;}
</style>
<g class="st0">
	<path class="st1" d="M84.2,251.3c0,49.2,32.8,89,73.5,89V162.2C117,162.2,84.2,202.1,84.2,251.3z"/>
</g>
<g>
	<path class="st2" d="M454.3,166.8c-39.1,0-66.7,25.7-70.8,51.4h141.7C521.1,192.5,493.3,166.8,454.3,166.8z"/>
</g>
<g class="st3">
	<path class="st2" d="M551.2,286.5c39.1,0,66.7-25.7,70.8-51.4H480.4C484.4,260.8,512.1,286.5,551.2,286.5z"/>
</g>
<g>
	<path class="st4" d="M551.2,286.5c39.1,0,66.7-25.7,70.8-51.4H480.4C484.4,260.8,512.1,286.5,551.2,286.5z"/>
</g>
<g>
	<path class="st2" d="M713.8,166.8c-39.1,0-66.7,25.7-70.8,51.4h141.7C780.6,192.5,752.8,166.8,713.8,166.8z"/>
</g>
<g class="st0">
	<path class="st1" d="M231.2,429.2c0,49.2-32.8,88.9-73.5,88.9V340.2C198.3,340.2,231.2,380.1,231.2,429.2z"/>
</g>
<g>
	<path class="st2" d="M157.7,518.1c-40.6,0-73.5-39.9-73.5-88.9h147C231.2,478.4,198.3,518.1,157.7,518.1z"/>
</g>
<path class="st5" d="M378.1,607.2c0,49.2-32.8,88.9-73.5,88.9V518.1C345.2,518.1,378.1,558,378.1,607.2z"/>
<g>
	<path class="st2" d="M304.6,696.1c-40.6,0-73.5-39.9-73.5-88.9h147C378.1,656.3,345.2,696.1,304.6,696.1z"/>
</g>
<g>
	<path class="st2" d="M304.6,340.6c40.6,0,73.5,39.9,73.5,89H231.2C231.2,380.4,264.1,340.6,304.6,340.6z"/>
</g>
<path class="st2" d="M451.6,340.6v88.9h73.5C525.2,380.4,492.2,340.6,451.6,340.6z"/>
<path class="st5" d="M157.7,340.8v-88.9H84.2C84.2,301,117,340.8,157.7,340.8z"/>
<path class="st2" d="M451.6,340.8v-88.9h-73.5C378.1,301,411,340.8,451.6,340.8z"/>
<path class="st2" d="M451.6,518.5L451.6,518.5c40.6,0,73.5-39.9,73.5-88.9l0,0C525.2,478.7,492.2,518.5,451.6,518.5z"/>
<path class="st2" d="M378.1,429.6c0,49.2,32.8,88.9,73.5,88.9l0,0v-88.9H378.1L378.1,429.6z"/>
<path class="st2" d="M525.2,429.6L525.2,429.6L525.2,429.6z"/>
<path class="st5" d="M525.2,429.6L525.2,429.6h-73.5v88.9C492.2,518.5,525.2,478.7,525.2,429.6z"/>
<path class="st5" d="M157.7,340.2v88.9h73.5l0,0C231.1,380.1,198.3,340.2,157.7,340.2z"/>
<path class="st5" d="M304.6,518.1v-88.9h-73.5l0,0C231.2,478.4,264.1,518.1,304.6,518.1z"/>
<path class="st4" d="M304.6,518.1v89h73.5l0,0C378.1,558,345.3,518.1,304.6,518.1z"/>
<path class="st4" d="M157.7,340.2v88.9h73.5l0,0C231.1,380.1,198.3,340.2,157.7,340.2z"/>
<path class="st4" d="M304.6,518.1v-88.9h-73.5l0,0C231.2,478.4,264.1,518.1,304.6,518.1z"/>
<path class="st4" d="M157.7,340.8v-88.9H84.2l0,0C84.2,300.9,117.2,340.8,157.7,340.8z"/>
<path class="st1" d="M451.6,340.6v-88.6h-73.5C378.4,301,411.1,340.6,451.6,340.6z"/>
<path class="st6" d="M378.1,248.9c0,0.1,0,0.1,0,0.2c0-5.7,1.2-16.5,1.2-16.5S378.1,243.3,378.1,248.9z"/>
<path class="st2" d="M378.1,252L378.1,252c0-0.1,0-0.1,0-0.2C378.1,251.8,378.1,252,378.1,252z"/>
<path class="st2" d="M672.1,429.3c0-49.2-32.8-89-73.5-89S525,380.2,525,429.2v177.6c0,49.2,32.8,88.9,73.5,88.9
	s73.5-39.9,73.5-88.9h0.3V429.3H672.1z M627.9,477.4h-0.1c0,19.5-13,35.2-29.1,35.2c-16.1,0-29.1-15.7-29.1-35.2v-70.2
	c0-19.5,13-35.2,29.1-35.2c16.1,0,29.1,15.7,29.1,35.2h0.1V477.4z"/>
<g>
	<path class="st2" d="M157.7,162.7c40.6,0,73.5,39.9,73.5,89h-147C84.2,202.5,117,162.7,157.7,162.7z"/>
</g>
<line class="st7" x1="376.6" y1="235.1" x2="480.4" y2="235.1"/>
<rect x="755.8" y="235.1" class="st2" width="28.9" height="283.4"/>
<polygon class="st2" points="740.1,501.6 697,501.6 697,518.5 755.8,518.5 755.8,501.6 "/>
</svg>
