<?xml version="1.0" encoding="utf-8"?>
<!-- Generator: Adobe Illustrator 27.4.0, SVG Export Plug-In . SVG Version: 6.00 Build 0)  -->
<svg version="1.1" id="Layer_1" xmlns="http://www.w3.org/2000/svg" xmlns:xlink="http://www.w3.org/1999/xlink" x="0px" y="0px"
	 viewBox="0 0 884.41 884.41" style="enable-background:new 0 0 884.41 884.41;" xml:space="preserve">
<style type="text/css">
	.st0{fill:#FFFFFF;}
	.st1{fill:#FFC4BE;}
	.st2{fill:none;stroke:#AF698C;stroke-width:3;stroke-miterlimit:10;}
</style>
<circle class="st0" cx="429.85" cy="414.27" r="321.06"/>
<path class="st1" d="M330.4,594.75c19.11-6.62,139.2-51.84,164.58-151.16l0.38-0.54H330.4V594.75z"/>
<path class="st1" d="M430.52,198.4H225.06v17.87h103.89h101.58h114.96V112.5c-36.02-13.96-75.17-21.63-116.12-21.63
	c-84.79,0-161.9,32.84-219.35,86.46h220.51v21.07L430.52,198.4L430.52,198.4z"/>
<polygon class="st1" points="328.94,237.32 309.56,237.32 309.56,284.54 545.48,284.54 545.48,237.32 430.52,237.32 "/>
<path class="st1" d="M721.19,277.29c-22.15-47.75-55.66-89.14-97.07-120.72v120.72H721.19z"/>
<path class="st1" d="M288.5,237.32H204v-5.3v-15.76v-17.87v-10.53v-4.77c-29.31,28.81-53.12,63.19-69.72,101.44H288.5V237.32z"/>
<path class="st1" d="M154.61,388.87h230.34c10.27,0,18.67-8.4,18.67-18.67l0,0c0-10.27-8.4-18.67-18.67-18.67H154.61
	c-10.27,0-18.67,8.4-18.67,18.67l0,0C135.94,380.47,144.35,388.87,154.61,388.87z"/>
<path class="st1" d="M624.12,323.21h-21.06V141.79c-11.68-7.51-23.88-14.27-36.53-20.25v163v19.4v1.66H126.02
	c-6.05,17.18-10.68,35.04-13.75,53.42c4.78-16.43,20-28.54,37.92-28.54h239.2c21.72,0,39.49,17.77,39.49,39.49v0.84
	c0,21.72-17.77,39.49-39.49,39.49h-239.2c-21.72,0-39.49-17.77-39.49-39.49v-0.84c0-0.24,0.01-0.47,0.02-0.7
	c-1.89,14.12-2.89,28.52-2.89,43.16c0,30.9,4.37,60.79,12.51,89.07c38.56-27.75,74.48-79.5,74.48-79.5h24.8
	c19.33,99.28,81.23,144.46,81.23,144.46v29.61c-75.02-54.64-99.64-142.22-99.64-142.22c-20.17,29.42-46.52,50.42-46.52,50.42h-33.52
	c39.53,132.82,162.54,229.69,308.2,229.69c88.06,0,167.83-35.41,225.9-92.75V421.99h21.06v196.32
	c46.56-55.78,74.58-127.56,74.58-205.9c0-40.17-7.39-78.61-20.85-114.07H624.12V323.21z M423.61,733.24
	c0,0-130.75,5.69-227.59-101.57v-0.04c-6.98-7.34-13.64-13.13-19.9-21.1v-80.86h21.06v67.64c9.71,13.89,81.67,111.76,226.44,115.12
	v20.81L423.61,733.24L423.61,733.24z M330.4,617.24v54.69c-7.24-2.76-13.88-6.87-19.58-12.11l-1.47-1.35V443.05v-21.06h21.06h179.54
	h5.54h9.07C524.55,421.99,508.72,562.4,330.4,617.24z M747.41,369.79v0.84c0,21.72-17.77,39.49-39.49,39.49h-239.2
	c-21.72,0-39.49-17.77-39.49-39.49v-0.84c0-21.72,17.77-39.49,39.49-39.49h239.2C729.64,330.3,747.41,348.07,747.41,369.79z"/>
<path class="st1" d="M454.49,370.03c0,10.27,8.4,18.67,18.67,18.67H703.5c10.27,0,18.67-8.4,18.67-18.67
	c0-10.27-8.4-18.67-18.67-18.67H473.16C462.89,351.36,454.49,359.76,454.49,370.03z"/>
<path class="st1" d="M110.72,369.26c0.46-3.43,0.98-6.85,1.55-10.25C111.32,362.28,110.78,365.71,110.72,369.26z"/>
<circle class="st2" cx="430.86" cy="413.1" r="322.23"/>
</svg>
