<?xml version="1.0" encoding="utf-8"?>
<!-- Generator: Adobe Illustrator 27.4.0, SVG Export Plug-In . SVG Version: 6.00 Build 0)  -->
<svg version="1.1" id="Layer_1" xmlns="http://www.w3.org/2000/svg" xmlns:xlink="http://www.w3.org/1999/xlink" x="0px" y="0px"
	 viewBox="0 0 884.4 884.4" style="enable-background:new 0 0 884.4 884.4;" xml:space="preserve">
<style type="text/css">
	.st0{fill:#FFFFFF;}
	.st1{fill:#D80058;}
	.st2{fill:none;stroke:#7A3F5F;stroke-width:3;stroke-miterlimit:10;}
</style>
<circle class="st0" cx="429.9" cy="414.3" r="321.1"/>
<path class="st1" d="M330.4,594.8c19.1-6.6,139.2-51.8,164.6-151.2l0.4-0.5h-165V594.8z"/>
<path class="st1" d="M430.5,198.4H225.1v17.9H329h101.6h115V112.5c-36-14-75.2-21.6-116.1-21.6c-84.8,0-161.9,32.8-219.4,86.5h220.5
	L430.5,198.4L430.5,198.4L430.5,198.4z"/>
<polygon class="st1" points="328.9,237.3 309.6,237.3 309.6,284.5 545.5,284.5 545.5,237.3 430.5,237.3 "/>
<path class="st1" d="M721.2,277.3c-22.2-47.8-55.7-89.1-97.1-120.7v120.7H721.2z"/>
<path class="st1" d="M288.5,237.3H204V232v-15.8v-17.9v-10.5v-4.8c-29.3,28.8-53.1,63.2-69.7,101.4h154.2V237.3z"/>
<path class="st1" d="M154.6,388.9H385c10.3,0,18.7-8.4,18.7-18.7l0,0c0-10.3-8.4-18.7-18.7-18.7H154.6c-10.3,0-18.7,8.4-18.7,18.7
	l0,0C135.9,380.5,144.4,388.9,154.6,388.9z"/>
<path class="st1" d="M624.1,323.2h-21.1V141.8c-11.7-7.5-23.9-14.3-36.5-20.3v163v19.4v1.7H126c-6.1,17.2-10.7,35-13.8,53.4
	c4.8-16.4,20-28.5,37.9-28.5h239.2c21.7,0,39.5,17.8,39.5,39.5v0.8c0,21.7-17.8,39.5-39.5,39.5H150.2c-21.7,0-39.5-17.8-39.5-39.5
	V370c0-0.2,0-0.5,0-0.7c-1.9,14.1-2.9,28.5-2.9,43.2c0,30.9,4.4,60.8,12.5,89.1c38.6-27.8,74.5-79.5,74.5-79.5h24.8
	c19.3,99.3,81.2,144.5,81.2,144.5v29.6c-75-54.6-99.6-142.2-99.6-142.2c-20.2,29.4-46.5,50.4-46.5,50.4h-33.5
	C160.7,637.1,283.7,734,429.4,734c88.1,0,167.8-35.4,225.9-92.8V422h21.1v196.3c46.6-55.8,74.6-127.6,74.6-205.9
	c0-40.2-7.4-78.6-20.8-114.1H624.1V323.2z M423.6,733.2c0,0-130.8,5.7-227.6-101.6v0c-7-7.3-13.6-13.1-19.9-21.1v-80.9h21.1v67.6
	c9.7,13.9,81.7,111.8,226.4,115.1L423.6,733.2L423.6,733.2L423.6,733.2z M330.4,617.2v54.7c-7.2-2.8-13.9-6.9-19.6-12.1l-1.5-1.3
	V443.1V422h21.1H510h5.5h9.1C524.5,422,508.7,562.4,330.4,617.2z M747.4,369.8v0.8c0,21.7-17.8,39.5-39.5,39.5H468.7
	c-21.7,0-39.5-17.8-39.5-39.5v-0.8c0-21.7,17.8-39.5,39.5-39.5h239.2C729.6,330.3,747.4,348.1,747.4,369.8z"/>
<path class="st1" d="M454.5,370c0,10.3,8.4,18.7,18.7,18.7h230.3c10.3,0,18.7-8.4,18.7-18.7c0-10.3-8.4-18.7-18.7-18.7H473.2
	C462.9,351.4,454.5,359.8,454.5,370z"/>
<path class="st1" d="M110.7,369.3c0.5-3.4,1-6.9,1.6-10.2C111.3,362.3,110.8,365.7,110.7,369.3z"/>
<circle class="st2" cx="430.9" cy="413.1" r="322.2"/>
</svg>
